<svg width="200" height="200" viewBox="0 0 200 200" fill="none" xmlns="http://www.w3.org/2000/svg">
<rect width="200" height="200" rx="100" fill="url(#paint0_linear_1048_272)"/>
<path d="M69.176 147.536C63.8 147.536 58.808 146.512 54.2 144.464C49.592 142.416 45.88 139.387 43.064 135.376C40.248 131.28 38.84 126.245 38.84 120.272C38.84 119.76 38.84 119.248 38.84 118.736C38.9253 118.224 38.968 117.797 38.968 117.456H55.992C55.992 117.541 55.9493 117.84 55.864 118.352C55.864 118.779 55.864 119.163 55.864 119.504C55.864 123.685 57.1013 127.056 59.576 129.616C62.0507 132.176 65.5067 133.456 69.944 133.456C74.8933 133.456 78.3493 132.389 80.312 130.256C82.2747 128.037 83.256 125.648 83.256 123.088C83.256 120.101 82.488 117.712 80.952 115.92C79.416 114.128 77.368 112.677 74.808 111.568C72.3333 110.373 69.56 109.307 66.488 108.368C63.5013 107.429 60.472 106.363 57.4 105.168C54.328 103.973 51.512 102.437 48.952 100.56C46.4773 98.5973 44.472 96.08 42.936 93.008C41.4 89.936 40.632 86.0107 40.632 81.232C40.632 75.6853 41.9973 71.12 44.728 67.536C47.4587 63.8667 51.0427 61.136 55.48 59.344C60.0027 57.552 64.824 56.656 69.944 56.656C75.1493 56.656 79.8853 57.552 84.152 59.344C88.504 61.136 91.96 63.952 94.52 67.792C97.1653 71.5467 98.488 76.4533 98.488 82.512V84.048H81.72V82.896C81.72 79.1413 80.6533 76.1973 78.52 74.064C76.472 71.8453 73.5707 70.736 69.816 70.736C65.8907 70.736 62.8613 71.632 60.728 73.424C58.5947 75.1307 57.528 77.3493 57.528 80.08C57.528 82.64 58.296 84.688 59.832 86.224C61.368 87.76 63.3733 89.04 65.848 90.064C68.408 91.088 71.224 92.0693 74.296 93.008C77.368 93.8613 80.3973 94.8853 83.384 96.08C86.456 97.2747 89.2293 98.8533 91.704 100.816C94.264 102.693 96.312 105.168 97.848 108.24C99.384 111.227 100.152 115.024 100.152 119.632C100.152 126.373 98.8293 131.792 96.184 135.888C93.5387 139.899 89.8693 142.843 85.176 144.72C80.568 146.597 75.2347 147.536 69.176 147.536ZM130.984 147.536C123.048 147.536 116.904 145.616 112.552 141.776C108.285 137.936 106.152 132.389 106.152 125.136V118.352H122.408V123.856C122.408 130.256 125.267 133.456 130.984 133.456C136.531 133.456 139.304 130.256 139.304 123.856V58.192H155.688V125.136C155.688 132.389 153.555 137.936 149.288 141.776C145.021 145.616 138.92 147.536 130.984 147.536Z" fill="white"/>
<defs>
<linearGradient id="paint0_linear_1048_272" x1="164" y1="22" x2="-4.58747e-06" y2="217" gradientUnits="userSpaceOnUse">
<stop stop-color="#FF052F"/>
<stop offset="1" stop-color="#9D172E"/>
</linearGradient>
</defs>
</svg>
