<svg width="141" height="168" viewBox="0 0 141 168" fill="none" xmlns="http://www.w3.org/2000/svg">
<path d="M78.9119 70.2385C78.9541 69.7838 79.0859 69.4227 79.2861 69.1218C78.601 68.5735 76.7404 66.875 75.5387 63.8459L72.1181 67.0756C71.7755 68.3862 71.7702 69.5832 71.8124 70.2118C74.9589 72.0707 78.0159 71.2014 78.8698 70.8871C78.8803 70.6731 78.8961 70.4592 78.9119 70.2385ZM90.8025 44.6547C92.1834 43.1368 95.4617 40.8699 96.226 40.1411C96.9902 39.4122 98.7769 37.4797 98.1023 34.6779C97.4277 31.8761 94.4023 32.4579 92.9371 33.5813C91.4718 34.7114 90.2438 36.9381 87.9669 39.3587C85.69 41.7793 87.1921 44.4206 87.1921 44.4206C87.6032 45.2966 89.4268 46.1726 90.8077 44.6547M106.525 66.9218C107.979 64.2204 108.591 61.6392 106.767 60.3687C101.997 57.0587 95.5302 66.0525 95.5302 66.0525C89.2687 67.1826 85.5266 72.8999 85.5266 72.8999L82.77 69.5096C81.036 69.8373 80.0451 70.4123 80.2349 71.5825C80.4246 72.7594 80.2876 74.177 80.2876 74.177L86.1116 80.1885C99.6624 61.6192 108.891 71.5892 108.891 71.5892C104.812 65.9589 100.221 65.9456 99.0405 66.0525C101.971 65.4975 104.638 66.1395 106.53 66.9151M80.4457 53.1135C79.9924 52.4315 79.4443 51.9099 78.8329 51.5287L50.5454 84.9362C50.3925 85.1167 50.5348 85.3374 50.7035 85.1702L81.4102 55.4004C81.2152 54.5646 80.9042 53.7889 80.451 53.1135M78.8645 72.3315C76.4822 73.7023 72.7558 72.5254 71.0376 71.9503C71.1325 73.6889 71.4698 75.4141 71.7913 77.1059C71.96 77.9819 72.1339 78.8511 72.3078 79.7204C72.5345 80.8371 72.6715 81.994 72.6662 83.1508C72.6609 84.3544 72.4185 85.4377 72.2077 86.5945C72.0706 87.3367 71.9389 88.1124 71.6174 88.7677C71.1061 89.8042 69.6409 92.1981 69.0664 92.8333C68.4919 93.4686 66.5839 94.0236 66.1623 94.0971C65.7406 94.1707 66.0569 95.7822 66.0569 95.7822C66.0569 95.7822 66.5786 96.257 67.9279 96.1968C69.2719 96.1366 70.3735 95.3944 71.4645 94.7725C72.5555 94.1506 74.0577 94.5786 76.0025 94.2175C77.9421 93.8564 77.8789 93.4552 78.2478 92.2716C78.6168 91.0814 77.6048 89.8175 77.0725 88.2996C76.5454 86.775 76.4295 83.6189 77.8736 79.259C78.9172 76.1095 78.875 74.1637 78.8645 72.3515M92.9213 45.5975C92.9213 45.5975 98.4343 48.7136 102.319 47.7774C102.319 47.7774 102.561 44.7349 104.227 43.0365C105.898 41.3313 106.282 39.5994 106.282 39.5994C106.282 39.5994 105.255 39.0043 103.979 37.6335C103.879 38.0815 103.752 38.5162 103.6 38.9441C103.246 39.907 102.751 40.7897 102.171 41.5052C101.075 42.876 99.9681 44.2869 99.42 46.1659C99.5939 45.203 99.9049 44.2668 100.321 43.4042C100.732 42.5416 101.201 41.7392 101.676 40.9502C102.129 40.2012 102.461 39.3654 102.672 38.4894C102.835 37.8007 102.925 37.0317 102.925 36.3496C102.877 36.2894 102.835 36.2426 102.793 36.1825C101.033 33.7551 98.7928 34.0293 98.7928 34.0293C98.7928 34.0293 99.6888 36.1825 98.7611 38.135C96.9217 42.0067 93.3798 42.4881 92.9265 45.5975M115.464 14.8648L105.386 25.6173C105.502 26.0853 105.776 26.8744 106.367 27.4829L116.318 16.8642C116.455 15.353 115.854 14.9584 115.464 14.8581M113.856 32.8457C114.136 32.5649 114.431 32.2172 114.557 31.7892C114.594 31.6622 114.62 31.5217 114.626 31.3813C114.636 31.1005 114.636 30.8263 114.594 30.5521C114.478 29.7497 114.104 29.081 113.54 28.6865C113.097 28.3789 112.597 28.2385 112.101 28.185C108.986 27.8306 107.695 29.1412 107.168 30.0774C107.168 30.0774 110.947 31.1807 113.308 33.2403C113.392 33.3138 113.809 32.9059 113.861 32.8524M100.063 17.8739C98.3079 16.7305 97.1694 13.9487 97.1694 13.9487C95.1297 14.156 94.5393 16.3961 94.5393 16.3961C95.8359 17.9542 97.6701 18.4757 99.4305 18.6496C99.5939 18.3353 99.81 18.0745 100.063 17.8739ZM102.177 19.9201C102.219 19.1578 101.76 18.4958 101.159 18.449C100.558 18.3955 100.037 18.9772 99.9997 19.7395C99.9576 20.5018 100.416 21.1638 101.017 21.2106C101.618 21.2641 102.134 20.6824 102.177 19.9201ZM95.4564 24.8951C95.7252 24.8616 96.0836 24.6744 96.2101 25.3297C96.3314 25.985 96.5475 26.9814 96.695 27.0683C96.8426 27.1619 97.0429 27.1352 97.9284 26.6872C98.856 26.2124 99.42 25.2829 99.7678 24.5541C100.121 23.8252 100.279 22.9826 100.353 22.1401C99.5886 21.779 99.0563 20.8495 99.1143 19.7663C99.1143 19.686 99.1564 19.6125 99.1617 19.5389C98.5872 19.5657 98.018 19.5389 97.4382 19.4319C96.9006 19.3316 96.3208 19.2113 95.8201 18.9171C95.1982 18.5493 95.2456 18.6964 95.1771 18.9705C95.1771 18.9705 94.9399 20.1341 95.3299 21.0836C95.72 22.0398 95.2193 23.103 94.9979 23.9924C94.7713 24.9018 95.0084 24.9553 95.4564 24.9018M115.585 13.9019C117.604 14.243 116.897 17.0447 116.897 17.0447L115.97 18.0545C115.875 18.1548 115.827 18.3086 115.843 18.4623C115.907 19.0508 115.748 19.8666 114.81 21.2508C113.74 22.8222 113.271 24.9753 112.623 25.8245C111.98 26.6671 112.296 27.396 112.296 27.396C112.855 27.4829 113.656 27.4495 114.668 28.4324C115.675 29.4154 115.78 30.5254 115.78 30.5254C117.725 29.1546 117.772 22.0398 118.094 19.8599C118.415 17.68 119.859 16.2423 120.181 15.3864C120.408 14.7779 120.392 13.8685 120.065 12.9123L130.069 2.32033C130.069 2.32033 130.348 1.82551 129.826 1.09664C129.389 0.494825 128.936 0.608504 128.936 0.608504L119.011 11.1135C118.247 10.4181 117.583 10.4448 116.476 11.5883C114.647 13.4873 115.227 14.3299 115.227 14.3299L115.596 13.8952L115.585 13.9019ZM35.8614 66.8683C37.2845 65.9522 38.2068 64.782 38.2068 64.782C38.2068 64.782 37.3846 62.6289 37.88 61.579C38.3755 60.5359 39.1186 60.4757 39.8934 60.4022C40.6682 60.3286 41.3797 59.6532 41.8225 58.9578C42.2652 58.2624 42.7238 57.4198 43.9413 57.0788C45.1588 56.7445 46.9561 55.3804 48.4898 54.4776C50.0236 53.5682 51.9948 52.7859 53.2756 53.4746C54.5563 54.17 56.8649 57.0588 57.8716 58.9712C58.8783 60.8836 60.7072 65.3839 60.7072 65.3839C60.7072 65.3839 61.4661 66.9352 62.7205 66.5875C63.2002 66.4538 64.3228 65.8185 65.5667 65.0428L78.7274 50.2783L79.2598 50.626L81.8002 47.9112L83.7082 45.9385C83.5343 46.0054 83.3709 46.079 83.1969 46.1325C81.8582 46.6139 80.4668 46.8948 79.0595 46.9416C76.245 47.0686 73.4041 46.3331 70.8004 44.9288C69.4986 44.2334 68.2442 43.3842 67.0477 42.4079C66.4258 41.893 65.8302 41.3581 65.2452 40.783C65.2346 40.783 65.2188 40.7696 65.203 40.7629C61.8403 43.8991 62.2146 50.7531 62.1987 51.8497C62.1777 53.0467 63.7905 56.9384 63.7905 56.9384C63.7905 56.9384 60.7651 52.057 58.9099 50.9069C57.0546 49.75 55.953 47.7239 55.5894 47.3495C55.2204 46.975 53.6445 45.8851 52.7327 46.0455C51.8209 46.206 50.5717 47.0285 49.8075 47.8176C49.038 48.5999 42.144 53.7153 41.3797 54.0764C40.6102 54.4308 39.7353 54.5779 38.7233 54.812C37.7114 55.046 36.283 55.494 35.7507 56.7378C35.2131 57.9882 35.1235 59.6332 34.7756 60.4423C34.4278 61.2581 32.7728 62.3347 32.2299 63.7723C31.687 65.2167 31.9295 67.4835 31.9295 67.4835C31.9295 67.4835 34.4278 67.7844 35.8456 66.8683M79.6604 130.487L79.5549 130.507C81.4576 132.419 83.0336 134.827 84.114 137.588C85.574 141.313 85.7532 145.706 84.7254 149.551C84.4777 150.521 84.1457 151.45 83.7398 152.326C83.3498 153.209 82.8438 154.045 82.2482 154.74C81.0465 156.144 79.4601 156.9 77.8894 157.054C76.303 157.214 74.7692 156.88 73.2355 156.713C72.4712 156.619 71.7017 156.532 70.9374 156.512C70.1732 156.512 69.3774 156.505 68.6764 156.92C69.3668 156.459 70.1679 156.405 70.9374 156.365C71.7122 156.338 72.487 156.378 73.2565 156.432C74.7903 156.505 76.3557 156.739 77.842 156.485C79.3336 156.245 80.7567 155.449 81.7897 154.118C82.8122 152.794 83.4605 151.015 83.8716 149.217C84.6885 145.586 84.346 141.587 82.9229 138.364C81.9636 136.177 80.6249 134.265 79.0753 132.72C79.0384 132.861 78.9963 132.994 78.9488 133.128C78.8276 133.422 78.68 133.683 78.5219 133.897C78.4376 134.004 78.3585 134.104 78.2689 134.198C78.2267 134.245 78.1793 134.292 78.1319 134.338L78.0528 134.405L78.0106 134.445L77.9421 134.499L77.7418 134.659L77.5679 134.693C76.888 134.84 76.2345 134.86 75.5967 134.827C74.9695 134.78 74.3528 134.68 73.752 134.539C73.1564 134.392 72.5713 134.211 71.9916 134.004C71.707 133.904 71.4171 133.79 71.1325 133.67C70.9902 133.616 70.8478 133.549 70.7055 133.489C70.5632 133.422 70.4262 133.362 70.2734 133.282L69.1454 132.667L69.2403 131.744C69.2825 131.356 69.351 130.968 69.4511 130.601C69.5513 130.233 69.683 129.885 69.8359 129.557C70.1416 128.909 70.5263 128.36 70.9374 127.886C71.7597 126.943 72.7084 126.301 73.5728 125.686C73.6782 125.612 73.7836 125.525 73.8732 125.452C73.9154 125.418 73.9575 125.378 73.9944 125.331C74.0313 125.291 74.0735 125.251 74.1104 125.191C74.2738 124.984 74.4266 124.73 74.5847 124.489C74.8325 124.088 75.0749 123.666 75.3226 123.252C69.5144 117.086 69.6461 116.465 59.458 115.281C54.5247 114.706 52.4059 113.803 51.7629 112.887C51.4098 113.181 51.141 113.496 51.0619 113.823C50.9249 114.238 51.2253 114.94 51.7313 115.475C52.7432 116.572 54.1505 117.254 55.5472 117.675C56.2535 117.882 56.9703 118.023 57.6976 118.089L59.9376 118.243C61.4398 118.37 62.9472 118.564 64.4335 118.925C65.9145 119.286 67.3798 119.788 68.766 120.55C70.1469 121.319 71.4434 122.329 72.5661 123.586C70.2154 121.192 67.2849 120.002 64.3597 119.52C62.8892 119.266 61.4029 119.173 59.9166 119.146H57.666C56.8965 119.119 56.127 119.019 55.368 118.845C53.8501 118.477 52.3374 117.902 50.9934 116.625C50.6666 116.291 50.3504 115.896 50.0921 115.375C49.8391 114.866 49.6915 114.124 49.8286 113.422C50.4189 110.313 53.4864 108.822 55.758 108.741C57.9243 108.668 60.0167 109.878 61.2026 112.098C61.2026 112.098 65.0449 108.501 67.9859 113.121C67.9859 113.121 71.201 112.212 74.2369 117.949C74.0735 117.641 74.0208 117.1 73.9154 116.752C73.5939 115.696 73.1986 114.673 72.7558 113.69C70.6634 109.076 67.3798 105.418 63.5691 103.205C61.4819 101.994 59.1365 101.486 57.1653 99.9414C55.7053 98.798 54.472 97.6946 52.6905 97.5609C52.6905 97.5609 56.1533 102.048 51.9474 105.478C47.7414 108.908 39.1239 107.284 37.7377 97.7615C37.4057 95.4813 37.3846 93.9701 37.5585 92.947C37.3582 92.9871 37.158 93.0272 36.9471 93.1075C35.8298 93.5087 34.8178 94.3646 34.0377 95.5214C33.2577 96.6916 32.699 98.1427 32.3248 99.6606C31.9664 101.172 31.861 102.763 32.2615 104.254C32.6463 105.746 33.4316 107.083 34.1801 108.447C34.9338 109.811 35.6506 111.256 36.1302 112.827C36.6098 114.392 36.8681 116.05 36.9577 117.708C36.7943 116.057 36.457 114.438 35.9088 112.947C35.3659 111.449 34.607 110.112 33.7953 108.815C32.9942 107.518 32.1034 106.22 31.5816 104.569C31.0493 102.917 31.0757 101.031 31.3972 99.3463C31.7239 97.6679 32.2352 96.0096 33.0785 94.5585C33.9218 93.1142 35.113 91.9239 36.4886 91.302C37.158 90.9877 37.938 90.8072 38.5916 90.7537L39.8038 90.64C40.7209 90.426 41.7487 90.2722 42.592 89.3027C42.592 89.3027 43.3826 88.186 44.5579 87.758C45.7386 87.33 46.7242 88.1793 46.1075 89.6236C45.7596 90.4461 45.5172 90.7738 45.3696 90.9008C45.7965 90.6735 46.9824 89.9513 47.6834 88.5136C48.163 87.5306 48.6163 86.2735 49.1803 85.2504C49.1539 84.7021 49.2962 84.1471 49.6441 83.7325L50.0816 83.231C49.6388 83.1307 49.0696 83.1508 48.5478 83.6122C48.5478 83.6122 49.175 82.7763 49.0327 81.5927C49.0327 81.5927 47.5885 84.0268 45.6331 84.9027C45.6331 84.9027 46.2024 83.5921 46.0917 82.783C46.0917 82.783 44.7213 84.8559 43.3088 85.4377C43.3088 85.4377 43.7726 84.3878 43.6988 83.6322C43.6988 83.6322 42.1756 85.7787 41.1109 86.5945C41.1109 86.5945 41.6064 85.645 41.8383 83.9532C42.0702 82.2614 42.9926 81.0511 42.7765 82.9769C42.7765 82.9769 43.6408 82.7362 43.9676 80.8304C44.2944 78.9247 45.2695 79.4864 44.7951 81.4189C44.7951 81.4189 45.6437 81.3587 46.0759 79.5198C46.5028 77.6743 47.1089 76.3168 47.9522 77.146C48.7903 77.9685 48.2474 79.0584 48.2474 79.0584C48.2474 79.0584 49.2857 78.1891 49.2172 76.9655C49.1487 75.7418 50.0288 74.5716 50.5665 77.0791C50.5665 77.0791 51.2727 73.8761 49.4543 71.3218C47.636 68.7674 47.0984 70.5929 46.7874 71.5692C46.4764 72.5455 45.5488 74.5983 42.2283 76.698C42.2283 76.698 42.6447 75.4141 41.7487 75.5545C40.8527 75.7016 39.9936 75.8889 39.4981 75.6816C39.0027 75.4676 38.2701 74.284 35.9879 76.6913C33.7057 79.0919 33.8902 78.6572 33.1154 79.0986C32.3406 79.5399 31.7292 78.9849 30.459 80.4225C29.1835 81.8602 29.1202 82.1745 28.3402 82.2481C28.3402 82.2481 29.4523 82.9301 30.2534 82.5824C31.0598 82.2414 31.6554 80.7301 33.9271 81.4791C33.9271 81.4791 32.4618 81.1715 30.849 83.1441C29.2362 85.1167 28.219 86.1599 27.5549 86.1197C27.5549 86.1197 28.6722 87.1896 30.3694 86.2802C32.0665 85.3708 31.9664 84.9763 32.7833 85.0699C32.7833 85.0699 29.1835 88.1726 28.3718 93.5956C27.5654 99.0186 28.3455 100.971 28.3455 100.971C28.3455 100.971 24.0973 93.8163 25.4519 88.7142C26.8012 83.6055 27.9291 83.893 27.9291 83.893C27.9291 83.893 27.3388 82.8432 25.3201 83.9666C23.623 84.9161 21.6834 84.428 19.9335 83.9398C16.6236 83.017 13.3927 82.2414 9.98785 82.2079C8.0588 82.1946 6.03488 82.2681 4.15853 82.997C3.20982 83.3647 2.30326 83.9064 1.52848 84.7088C1.17008 85.0766 0.758969 85.5246 0.51652 86.0395C0.316236 86.4608 0.305697 87.2097 0 87.5306C0 87.5306 3.22562 84.1672 9.18671 87.6376C15.1478 91.1081 13.4559 95.6685 13.4559 95.6685C13.4559 95.6685 20.2392 93.054 22.9641 101.285C22.9641 101.285 26.448 100.102 27.344 104.515C27.3757 104.669 27.3968 104.823 27.4231 104.97C27.8395 103.472 28.3349 102.456 28.3349 102.456C27.8764 105.558 28.5879 109.604 28.5879 109.604C28.5879 109.604 27.8395 110.406 26.7221 110.634C26.6905 110.647 26.6589 110.654 26.6272 110.66C26.6062 110.66 26.5851 110.66 26.564 110.667C26.427 110.687 26.2846 110.701 26.1371 110.694C26.116 110.694 26.0949 110.694 26.0738 110.694C26.0527 110.694 26.0422 110.687 26.0211 110.687C25.8472 110.674 25.6733 110.654 25.4835 110.6C23.0485 109.911 24.1026 101.974 18.5843 98.8047C18.5843 98.8047 19.7701 100.864 19.7438 102.737C19.7438 102.737 18.0941 98.0223 14.4363 99.9882C14.4363 99.9882 17.0663 100.777 17.6882 103.98C17.6882 103.98 14.8421 101.673 13.7774 104.295C13.7774 104.295 16.0016 103.98 17.1032 106.936C18.2048 109.891 20.8085 110.935 20.8085 110.935C20.8085 110.935 22.5372 113.716 23.9814 115.167C25.4255 116.618 27.3704 120.343 28.4456 119.273C29.31 118.41 28.4193 116.772 29.1466 114.673C29.6104 116.103 30.2482 117.508 31.1863 118.838C34.3856 123.392 40.4626 124.255 40.4626 124.255C40.4626 124.255 40.1517 122.857 39.1292 121.386C37.5216 119.052 38.4282 114.907 38.4282 114.907C38.4282 114.907 38.3386 119.012 39.5561 120.43C40.7736 121.847 42.0544 123.486 41.5906 125.719C41.5906 125.719 39.3611 127.464 37.6429 126.883C35.9299 126.301 32.1614 121.506 29.1993 126.515C29.1993 126.515 31.0071 126.147 32.5303 127.451C32.5303 127.451 29.1835 127.157 29.2204 130.801C29.2204 130.801 31.8135 129.698 33.0627 131.222C33.0627 131.222 31.4341 131.938 31.492 134.893C31.492 134.893 33.0943 132.673 35.3027 133.382C37.5164 134.091 41.1689 131.109 42.8871 130.353C44.6054 129.598 46.6451 128.942 48.5162 129.223C50.3873 129.504 50.3767 126.936 48.9589 126.348C47.5358 125.759 46.7927 125.592 45.786 124.154C45.786 124.154 47.8257 125.371 50.0921 125.88C52.369 126.388 54.6354 127.371 54.6354 127.371C54.6354 127.371 55.679 123.466 58.6727 122.576C58.6727 122.576 55.9056 124.195 55.1045 129.156C54.2981 134.118 57.16 135.997 60.2433 136.893C63.3214 137.789 65.9567 136.258 67.8752 136.926C67.8752 136.926 65.8882 136.946 63.6798 138.484C61.4661 140.022 56.6698 136.779 55.426 137.02C54.1768 137.261 51.8947 136.431 50.8722 138.792C50.8722 138.792 52.3743 138.538 53.7868 139.233C53.7868 139.233 51.1568 138.946 50.4769 143.011C50.4769 143.011 53.0647 141.099 55.9161 142.603C55.9161 142.603 53.9291 143.533 53.7605 146.669C53.7605 146.669 55.7897 143.499 59.0206 144.095C62.2567 144.69 64.4967 141.072 67.3376 141.768C70.1838 142.47 73.2618 142.022 72.1813 138.752C71.1746 135.716 70.7055 135.442 70.6476 135.422C70.7688 135.455 72.5292 136.104 73.6782 139.889C73.6782 139.889 81.5631 140.811 80.7619 149.364C79.9555 157.91 68.8134 152.587 65.7722 158.063C64.2859 160.738 65.2768 162.691 66.6841 163.988C65.5509 164.102 63.3319 163.219 63.3319 163.219C65.0291 166.623 69.0295 168 69.0295 168L69.4037 161.487C68.9399 162.43 68.1335 163.232 67.7329 163.6C66.8316 162.236 66.3309 160.437 67.7962 158.585C70.811 154.76 75.6705 160.096 80.9833 157.421C86.0431 154.874 90.2385 139.929 81.6263 129.745C80.9622 130.199 80.2717 130.4 79.7078 130.52M38.2964 79.8475C38.5705 79.5198 38.7602 79.1119 38.9552 78.7107C39.4033 77.828 40.4416 76.7047 41.327 77.2463C41.6696 77.4536 41.8172 77.8214 41.7434 78.1758C41.7434 78.1624 41.3376 77.4803 40.0515 79.2122C38.6179 81.1447 36.9524 80.6833 36.9524 80.6833C37.3372 80.777 38.0276 80.1618 38.2964 79.8475ZM45.4065 90.9142C45.3064 90.9677 45.2484 90.9944 45.2484 90.9944C45.2484 90.9944 45.3011 91.0145 45.4065 90.9142ZM120.956 94.846C118.626 93.4351 116.191 92.0978 115.016 89.7306C115.016 89.7306 116.887 90.0182 117.735 91.1081C117.735 91.1081 117.472 78.4633 108.522 73.3412C107.974 73.0269 107.421 72.6792 106.867 72.298C95.3089 70.2318 87.1499 85.324 87.1499 85.324L79.7236 77.8816C79.6287 79.2256 79.0015 80.2286 78.5166 82.1544C78.3585 82.7964 78.3058 83.4717 78.3058 84.0869C79.8396 86.6279 82.1797 88.8012 85.9271 89.0018C85.9271 89.0018 83.5395 96.3305 85.3157 101.386C87.0972 106.441 90.9026 110.814 90.3545 112.7C89.8063 114.586 88.6626 116.899 86.0484 117.581C83.4289 118.263 79.4021 119.066 78.0739 120.597C76.7457 122.128 75.4386 125.452 74.727 126.281C74.0208 127.11 70.9216 128.407 70.7424 131.898C70.7424 131.898 74.4793 134.031 77.3307 133.202C77.3307 133.202 77.9263 132.727 77.9368 131.884C77.9368 131.042 78.0107 129.129 78.6273 128.849C79.244 128.568 80.8357 128.574 81.7791 126.789C82.7226 125.01 83.8031 123.72 86.0273 122.884C88.2515 122.048 91.5193 120.336 93.7751 119.554C96.0309 118.772 96.8742 118.471 96.9322 117.822C96.9322 117.822 97.5225 116.645 97.1852 115.141C96.8479 113.636 96.7846 112.359 97.0851 110.293C97.3908 108.226 97.4646 107.444 97.4646 107.444C97.4646 107.444 102.308 107.431 106.867 103.004C110.952 99.0387 111.627 93.7695 111.722 92.7196C111.732 92.5993 111.732 92.5324 111.732 92.5324C111.732 92.5324 116.028 95.9962 113.941 101.312C111.853 106.628 105.819 110.874 104.965 118.156C104.248 124.248 106.24 127.404 106.24 127.404C106.24 127.404 105.518 121.767 109.566 116.217C112.575 112.091 115.553 112.111 115.553 112.111C115.553 112.111 110.277 115.314 108.907 122.643C108.812 123.138 108.717 123.74 108.633 124.375C109.534 121.954 111.258 118.457 114.02 117.147C121.852 113.422 130.327 100.751 120.956 94.8527M135.555 35.4803C129.615 30.4318 123.496 32.391 121.03 34.0159C118.315 35.8013 115.01 34.0026 115.901 34.9521C115.901 34.9521 119.796 39.693 124.482 36.898C124.482 36.898 121.056 41.3046 116.27 36.8712C113.35 34.1697 110.235 32.157 107.062 30.7996C105.782 29.4221 104.258 27.2957 104.295 25.0154C104.311 24.1328 105.486 22.8355 106.003 19.9C106.525 16.9645 105.075 15.139 104.891 14.5305C104.706 13.922 104.944 13.6813 105.154 12.8588C105.365 12.0363 106.873 12.0898 107.347 13.6679C107.816 15.246 109.645 17.6064 111.521 16.59C113.398 15.5736 112.67 13.581 112.402 13.2332C112.138 12.8855 111.938 13.3335 112.059 13.7615C112.18 14.1895 111.954 15.7341 110.399 13.8886C108.844 12.043 109.777 8.75975 108.649 6.98106C107.521 5.20236 104.775 5.16224 103.536 6.854C102.298 8.55246 103.299 10.2777 103.874 11.3208C104.453 12.3706 103.484 12.939 103.484 12.939C101.17 11.6819 99.4252 12.2703 98.3658 12.9591C98.5292 15.2794 100.021 17.1584 100.485 17.68C100.701 17.5864 100.927 17.5329 101.165 17.5529C102.208 17.6399 102.999 18.7833 102.93 20.1073C102.867 21.3377 102.071 22.2605 101.122 22.314C101.006 23.2434 100.906 24.193 100.606 25.0489C100.079 26.5467 98.9298 27.3425 98.1866 27.7169C102.935 28.419 104.042 30.7126 104.042 30.7126C100.732 28.2586 96.7372 29.1011 96.0099 29.2816C93.617 29.9971 92.2624 31.4816 92.6946 32.5582C92.6946 32.5582 97.5542 29.9971 101.47 33.3606C105.392 36.7174 104.174 37.6803 110.109 41.0973C116.044 44.5209 119.823 43.9124 124.777 40.3484C129.731 36.7843 137.679 34.4506 138.976 46.5671C138.976 46.5671 134.533 39.9137 127.249 44.3872C119.96 48.8607 119.891 54.7117 114.594 51.3816C109.292 48.0516 109.518 44.2668 106.356 42.0802L105.381 43.2371C105.381 43.2371 106.556 43.2371 107.753 46.975C108.765 50.1245 111.795 56.2162 116.866 56.8581C121.936 57.5068 124.445 52.9998 126.195 50.7397C127.95 48.4795 130.838 45.7045 134.876 47.4565C138.913 49.2084 139.603 52.0771 140.541 51.6959C141.474 51.3081 141.495 40.5222 135.555 35.4737M81.6052 52.8059C81.7423 53.0132 81.8424 53.2539 81.9583 53.4813L88.515 46.5069C87.7824 46.6139 87.1183 46.099 86.6703 45.5641L80.7883 51.8163C81.0781 52.1172 81.3575 52.4448 81.6052 52.8059ZM102.619 49.3355C102.619 49.3355 97.3381 50.2449 92.6683 47.0151C92.6683 47.0151 91.8408 46.9215 90.4599 48.2522C89.3425 49.3288 88.5941 51.522 86.7915 52.5518C86.7915 52.5518 89.9276 51.6224 92.0622 55.0728C93.9016 58.0484 93.6328 60.2617 96.4368 60.1949C99.2302 60.1347 101.328 56.6241 105.17 58.3827C105.17 58.3827 104.132 56.4703 104.09 53.4545C104.053 50.4388 102.619 49.3221 102.619 49.3221M43.1876 46.7811C43.1876 46.7811 43.0927 44.5811 43.8042 43.9191C44.5158 43.2571 45.1641 43.538 45.844 43.8188C46.5186 44.1064 47.3092 43.8523 47.8837 43.4644C48.4529 43.0699 49.0749 42.5617 50.2028 42.8225C51.3307 43.0833 53.2334 42.7422 54.7882 42.662C56.3431 42.5818 58.23 42.8024 59.126 43.9659C59.6214 44.6079 60.1906 45.9586 60.6545 47.3896C60.976 45.2832 61.6611 42.7556 63.158 41.0237C62.9893 40.442 62.8839 39.994 62.8049 39.8067C62.5993 39.3253 61.5663 37.6937 60.7493 37.4195C59.9324 37.1454 58.6411 37.2791 57.7767 37.6001C56.907 37.9277 49.6336 39.1581 48.8799 39.118C48.1314 39.0779 47.3461 38.8104 46.4237 38.5496C45.5014 38.2955 44.1679 38.028 43.3615 38.8438C42.5604 39.6596 42.0228 41.017 41.501 41.5453C40.9792 42.0802 39.2768 42.2474 38.4124 43.2237C37.5533 44.2 37.1263 46.2328 37.1263 46.2328C37.1263 46.2328 39.1555 47.6169 40.6155 47.4765C42.0755 47.3361 43.1876 46.7677 43.1876 46.7677M80.1452 68.413C81.4576 67.5972 83.7873 67.2161 86.8759 65.7115C91.5773 63.4179 91.8355 60.9438 91.7986 58.5833C91.7617 56.2229 89.8274 52.4181 85.8059 54.0296C84.6516 54.4977 83.7398 55.2132 82.9018 56.0423L83.0863 56.8113L77.025 62.5219C77.278 63.8593 78.0054 66.1395 80.14 68.413M57.5869 15.4533C57.5448 16.5633 57.6028 19.0174 55.9583 21.8927C60.9812 23.1164 62.3463 26.9279 62.71 29.1546C63.5375 28.4124 64.5284 27.6567 65.593 27.2087C67.1637 26.5467 71.8493 24.5741 72.155 18.4089C72.4607 12.2436 70.4895 8.55247 70.4895 8.55247C70.4895 8.55247 73.1511 10.6187 73.325 16.3025C73.499 21.9863 72.3026 23.7249 70.0098 27.0951C70.0098 27.0951 70.1258 30.0306 68.5024 32.5181C67.6433 33.8421 66.8369 35.8214 66.2413 37.9143C66.8738 38.69 67.5853 39.459 68.2969 40.1344C69.3299 41.1107 70.4262 41.9933 71.5752 42.7289C73.8785 44.2067 76.4189 45.1161 79.0173 45.2231C80.3192 45.2966 81.6316 45.1428 82.9176 44.8018C83.5395 44.6747 84.1351 44.4273 84.7465 44.22C84.989 43.5112 85.0153 41.4918 84.9521 40.6961C84.8467 39.2183 84.8203 38.797 84.6885 36.9247C83.0547 13.0661 72.9456 10.3646 72.9297 10.3579C72.9561 10.3579 84.8625 11.1871 85.6056 35.0992C86.217 28.1449 87.8351 21.224 84.1984 12.7719C80.1189 3.29661 71.1588 6.3993 71.1588 6.3993C71.6595 3.83156 69.857 0.728868 68.6236 0.0869321C68.6447 0.147114 69.2772 1.25044 68.9188 2.36045C68.6922 3.05588 68.4603 4.66072 68.6553 5.59688C68.6553 5.59688 67.6222 4.44006 65.9725 5.20236C65.9725 5.20236 65.3875 0.789046 62.6784 0C62.6784 0 63.0631 0.916102 62.8629 2.46076C62.6678 4.00542 62.9841 5.73062 63.4004 6.23882C63.4004 6.23882 61.6664 5.00844 59.7268 7.72329C58.0929 10.0169 57.5184 9.78952 57.3814 9.66247C57.6027 9.91657 58.8413 11.167 61.0392 10.0771C61.0392 10.0771 60.4384 11.3676 59.8902 11.9494C59.3421 12.5311 57.6238 14.1426 57.5764 15.46M62.5466 18.0879C63.3952 17.4727 63.8168 17.0982 64.2279 17.8271C64.2279 17.8271 63.3477 18.6228 63.2371 19.3851C63.1316 20.1474 62.1935 20.5888 62.1935 20.5888C62.1935 20.5888 61.6032 19.9067 61.6506 18.9772C61.6506 18.9772 61.113 19.0709 60.9496 18.4356C60.9496 18.4356 61.7033 18.7031 62.5519 18.0946M52.875 31.3412C52.7169 32.2038 54.0503 32.7387 54.6828 32.8056C55.3153 32.8725 56.2851 33.501 56.8543 32.264C57.4288 31.0269 57.803 30.6524 58.7728 30.3449C59.7426 30.0373 59.2577 30.8932 59.068 31.3345C58.8835 31.7758 57.7661 32.6117 58.0982 33.1399C58.4302 33.6615 59.2999 34.912 59.8849 33.8554C60.3224 33.0597 60.549 31.9163 61.0498 30.9935C60.7019 25.3966 56.7647 23.7516 55.0412 23.2969C54.9727 23.3839 54.9042 23.4775 54.8304 23.5711C52.037 27.1419 52.2214 26.647 52.4323 28.4458C52.6431 30.2446 53.0278 30.4786 52.8697 31.3412" fill="#F22129"/>
</svg>
