<svg width="78" height="80" viewBox="0 0 78 80" fill="none" xmlns="http://www.w3.org/2000/svg">
<path d="M41.9125 22.359C41.926 22.2143 41.9682 22.0993 42.0324 22.0036C41.8129 21.829 41.217 21.2883 40.8321 20.3241L39.7365 21.3522C39.6268 21.7694 39.6251 22.1504 39.6386 22.3505C40.6464 22.9423 41.6255 22.6656 41.899 22.5655C41.9024 22.4974 41.9075 22.4293 41.9125 22.359ZM45.7209 14.2149C46.1632 13.7317 47.2132 13.0101 47.458 12.7781C47.7027 12.5461 48.275 11.9309 48.0589 11.039C47.8429 10.1471 46.8739 10.3323 46.4046 10.6899C45.9353 11.0497 45.542 11.7585 44.8127 12.5291C44.0834 13.2996 44.5645 14.1404 44.5645 14.1404C44.6962 14.4193 45.2803 14.6981 45.7226 14.2149M50.7566 21.3032C51.2225 20.4433 51.4183 19.6216 50.8342 19.2172C49.3065 18.1635 47.2351 21.0265 47.2351 21.0265C45.2297 21.3863 44.0311 23.2062 44.0311 23.2062L43.1482 22.127C42.5928 22.2313 42.2755 22.4144 42.3362 22.7869C42.397 23.1615 42.3531 23.6128 42.3531 23.6128L44.2185 25.5264C48.5586 19.6152 51.5145 22.789 51.5145 22.789C50.2079 20.9967 48.7376 20.9925 48.3594 21.0265C49.298 20.8498 50.1522 21.0542 50.7582 21.3011M42.4038 16.9076C42.2586 16.6905 42.083 16.5245 41.8872 16.4032L32.8271 27.0377C32.7781 27.0952 32.8237 27.1655 32.8777 27.1123L42.7127 17.6356C42.6502 17.3696 42.5506 17.1226 42.4054 16.9076M41.8973 23.0253C41.1343 23.4617 39.9408 23.087 39.3905 22.904C39.4209 23.4574 39.5289 24.0066 39.6319 24.5451C39.6859 24.824 39.7416 25.1007 39.7973 25.3774C39.8699 25.7329 39.9138 26.1012 39.9121 26.4694C39.9104 26.8526 39.8328 27.1974 39.7652 27.5656C39.7213 27.8019 39.6791 28.0488 39.5762 28.2575C39.4124 28.5874 38.9431 29.3494 38.7591 29.5517C38.5751 29.7539 37.964 29.9305 37.829 29.954C37.6939 29.9774 37.7952 30.4904 37.7952 30.4904C37.7952 30.4904 37.9623 30.6415 38.3945 30.6224C38.825 30.6032 39.1778 30.3669 39.5272 30.169C39.8766 29.971 40.3578 30.1072 40.9807 29.9923C41.6019 29.8773 41.5816 29.7496 41.6998 29.3728C41.818 28.994 41.4939 28.5916 41.3234 28.1084C41.1546 27.6231 41.1174 26.6184 41.58 25.2306C41.9142 24.228 41.9007 23.6085 41.8973 23.0317M46.3995 14.5151C46.3995 14.5151 48.1653 15.507 49.4094 15.209C49.4094 15.209 49.4871 14.2405 50.0205 13.6998C50.5557 13.157 50.6789 12.6057 50.6789 12.6057C50.6789 12.6057 50.3497 12.4162 49.9412 11.9799C49.9091 12.1225 49.8686 12.2609 49.8196 12.3971C49.7065 12.7036 49.5479 12.9846 49.3622 13.2124C49.011 13.6487 48.6565 14.0979 48.481 14.696C48.5367 14.3895 48.6363 14.0915 48.7696 13.8169C48.9013 13.5423 49.0516 13.2869 49.2035 13.0357C49.3487 12.7973 49.455 12.5312 49.5225 12.2523C49.5749 12.0331 49.6036 11.7883 49.6036 11.5712C49.5884 11.552 49.5749 11.5371 49.5614 11.518C48.9975 10.7453 48.2801 10.8326 48.2801 10.8326C48.2801 10.8326 48.5671 11.518 48.27 12.1395C47.6808 13.372 46.5464 13.5253 46.4012 14.5151M53.6196 4.73192L50.3919 8.15475C50.4291 8.30375 50.5168 8.55493 50.7059 8.74864L53.8931 5.36838C53.937 4.88732 53.7445 4.76173 53.6196 4.7298M53.1047 10.4558C53.1942 10.3664 53.2887 10.2557 53.3292 10.1195C53.3411 10.079 53.3495 10.0343 53.3512 9.98962C53.3546 9.90022 53.3546 9.81295 53.3411 9.72567C53.3039 9.47024 53.1841 9.25738 53.0034 9.13179C52.8616 9.03387 52.7013 8.98917 52.5426 8.97214C51.5449 8.85932 51.1313 9.27653 50.9625 9.57454C50.9625 9.57454 52.1729 9.92576 52.9292 10.5814C52.9562 10.6048 53.0895 10.4749 53.1064 10.4579M48.6869 5.6898C48.1248 5.32581 47.7601 4.4403 47.7601 4.4403C47.1068 4.50629 46.9178 5.21938 46.9178 5.21938C47.3331 5.71535 47.9205 5.88138 48.4843 5.93673C48.5367 5.83668 48.6059 5.75366 48.6869 5.6898ZM49.3639 6.34117C49.3774 6.0985 49.2305 5.88777 49.0381 5.87287C48.8456 5.85584 48.6785 6.04103 48.6667 6.28369C48.6532 6.52635 48.8 6.73709 48.9925 6.75199C49.1849 6.76902 49.3504 6.58383 49.3639 6.34117ZM47.2115 7.92486C47.2976 7.91421 47.4124 7.85461 47.4529 8.06322C47.4917 8.27182 47.561 8.58899 47.6082 8.61666C47.6555 8.64646 47.7196 8.63795 48.0032 8.49533C48.3003 8.3442 48.481 8.04832 48.5924 7.8163C48.7055 7.58428 48.7561 7.31607 48.7798 7.04787C48.535 6.93292 48.3645 6.63704 48.3831 6.2922C48.3831 6.26666 48.3966 6.24325 48.3983 6.21983C48.2142 6.22835 48.0319 6.21983 47.8462 6.18577C47.674 6.15384 47.4884 6.11553 47.328 6.02187C47.1288 5.9048 47.144 5.95162 47.122 6.0389C47.122 6.0389 47.0461 6.40928 47.171 6.71154C47.2959 7.01594 47.1355 7.35439 47.0646 7.63749C46.9921 7.92699 47.068 7.94402 47.2115 7.92699M53.6584 4.42541C54.305 4.53397 54.0788 5.42586 54.0788 5.42586L53.7816 5.74728C53.7513 5.77921 53.7361 5.82817 53.7411 5.87712C53.7614 6.06444 53.7108 6.32413 53.4103 6.76476C53.0676 7.26498 52.9173 7.9504 52.7097 8.22074C52.5038 8.48894 52.605 8.72096 52.605 8.72096C52.784 8.74863 53.0406 8.73799 53.3647 9.0509C53.6871 9.36381 53.7209 9.71716 53.7209 9.71716C54.3438 9.28079 54.359 7.01594 54.462 6.32201C54.5649 5.62807 55.0275 5.17042 55.1305 4.89796C55.203 4.70426 55.198 4.41476 55.0933 4.11037L58.2974 0.738632C58.2974 0.738632 58.3868 0.581114 58.2197 0.349094C58.0796 0.157518 57.9344 0.193705 57.9344 0.193705L54.7557 3.53777C54.5109 3.31639 54.2982 3.32491 53.9437 3.6889C53.3579 4.29343 53.5436 4.56164 53.5436 4.56164L53.6618 4.42328L53.6584 4.42541ZM28.124 21.2862C28.5798 20.9946 28.8752 20.6221 28.8752 20.6221C28.8752 20.6221 28.6119 19.9367 28.7705 19.6025C28.9292 19.2704 29.1672 19.2513 29.4154 19.2278C29.6636 19.2044 29.8914 18.9894 30.0333 18.7681C30.1751 18.5467 30.3219 18.2785 30.7119 18.1699C31.1018 18.0635 31.6775 17.6292 32.1687 17.3419C32.66 17.0524 33.2913 16.8033 33.7015 17.0226C34.1117 17.244 34.8511 18.1635 35.1736 18.7723C35.496 19.3811 36.0818 20.8137 36.0818 20.8137C36.0818 20.8137 36.3249 21.3075 36.7266 21.1968C36.8802 21.1542 37.2398 20.952 37.6382 20.7051L41.8534 16.0051L42.0239 16.1158L42.8376 15.2516L43.4487 14.6236C43.393 14.6449 43.3407 14.6683 43.285 14.6854C42.8562 14.8386 42.4105 14.928 41.9598 14.9429C41.0583 14.9834 40.1484 14.7492 39.3145 14.3022C38.8975 14.0808 38.4958 13.8105 38.1126 13.4997C37.9134 13.3358 37.7226 13.1655 37.5352 12.9825C37.5319 12.9825 37.5268 12.9782 37.5217 12.9761C36.4447 13.9744 36.5646 16.1562 36.5595 16.5053C36.5528 16.8864 37.0693 18.1252 37.0693 18.1252C37.0693 18.1252 36.1003 16.5713 35.5061 16.2052C34.9119 15.8369 34.5591 15.192 34.4426 15.0728C34.3244 14.9536 33.8197 14.6066 33.5277 14.6577C33.2356 14.7088 32.8355 14.9706 32.5907 15.2218C32.3443 15.4708 30.1362 17.0992 29.8915 17.2142C29.645 17.327 29.3648 17.3738 29.0406 17.4483C28.7165 17.5228 28.259 17.6654 28.0885 18.0614C27.9164 18.4594 27.8877 18.983 27.7762 19.2406C27.6648 19.5003 27.1348 19.843 26.9609 20.3007C26.787 20.7604 26.8647 21.4821 26.8647 21.4821C26.8647 21.4821 27.6648 21.5778 28.1189 21.2862M42.1522 41.5379L42.1185 41.5443C42.7279 42.1531 43.2326 42.9194 43.5787 43.7985C44.0463 44.9842 44.1037 46.3827 43.7745 47.6066C43.6952 47.9153 43.5888 48.2111 43.4588 48.49C43.3339 48.771 43.1719 49.0371 42.9811 49.2584C42.5962 49.7054 42.0881 49.946 41.585 49.9949C41.0769 50.046 40.5857 49.9396 40.0944 49.8864C39.8496 49.8566 39.6032 49.8289 39.3584 49.8225C39.1136 49.8225 38.8587 49.8204 38.6342 49.9524C38.8553 49.8055 39.1119 49.7885 39.3584 49.7757C39.6065 49.7672 39.8547 49.7799 40.1012 49.797C40.5924 49.8204 41.0938 49.8949 41.5698 49.814C42.0476 49.7374 42.5034 49.4841 42.8342 49.0605C43.1617 48.639 43.3694 48.0728 43.501 47.5002C43.7627 46.3443 43.653 45.0714 43.1972 44.0454C42.8899 43.3494 42.4612 42.7406 41.9648 42.2489C41.953 42.2936 41.9395 42.3362 41.9243 42.3787C41.8855 42.4724 41.8382 42.5554 41.7876 42.6235C41.7606 42.6576 41.7353 42.6895 41.7066 42.7193C41.6931 42.7342 41.6779 42.7491 41.6627 42.764L41.6374 42.7853L41.6238 42.7981L41.6019 42.8151L41.5378 42.8662L41.482 42.8768C41.2643 42.9237 41.055 42.93 40.8507 42.9194C40.6498 42.9045 40.4523 42.8726 40.2599 42.8279C40.0691 42.781 39.8817 42.7236 39.696 42.6576C39.6049 42.6256 39.512 42.5895 39.4209 42.5511C39.3753 42.5341 39.3297 42.5128 39.2841 42.4937C39.2385 42.4724 39.1947 42.4532 39.1457 42.4277L38.7844 42.2318L38.8148 41.9381C38.8283 41.8146 38.8503 41.6912 38.8824 41.5741C38.9144 41.457 38.9566 41.3463 39.0056 41.242C39.1035 41.0356 39.2267 40.861 39.3584 40.7099C39.6217 40.4098 39.9256 40.2054 40.2025 40.0096C40.2362 39.9862 40.27 39.9585 40.2987 39.9351C40.3122 39.9244 40.3257 39.9117 40.3375 39.8968C40.3493 39.884 40.3628 39.8712 40.3746 39.8521C40.427 39.7861 40.4759 39.7052 40.5266 39.6285C40.6059 39.5008 40.6836 39.3667 40.7629 39.2348C38.9026 37.2722 38.9448 37.0742 35.6817 36.6974C34.1016 36.5144 33.423 36.227 33.217 35.9354C33.1039 36.029 33.0178 36.1291 32.9925 36.2334C32.9486 36.3654 33.0448 36.5889 33.2069 36.7592C33.531 37.1083 33.9818 37.3254 34.4291 37.4595C34.6553 37.5255 34.8849 37.5702 35.1179 37.5915L35.8353 37.6404C36.3164 37.6809 36.7992 37.7426 37.2753 37.8575C37.7496 37.9725 38.2189 38.1321 38.6629 38.3748C39.1052 38.6196 39.5205 38.941 39.88 39.3412C39.1271 38.5791 38.1885 38.2002 37.2516 38.047C36.7806 37.9661 36.3046 37.9363 35.8286 37.9278H35.1077C34.8613 37.9193 34.6148 37.8873 34.3717 37.832C33.8855 37.7149 33.401 37.5319 32.9706 37.1253C32.8659 37.0189 32.7646 36.8933 32.6819 36.7272C32.6009 36.5655 32.5536 36.3292 32.5975 36.1057C32.7866 35.1159 33.769 34.6412 34.4966 34.6156C35.1904 34.5922 35.8606 34.9775 36.2404 35.6842C36.2404 35.6842 37.4711 34.539 38.4131 36.0099C38.4131 36.0099 39.4428 35.7204 40.4152 37.5468C40.3628 37.4488 40.3459 37.2764 40.3122 37.1657C40.2092 36.8294 40.0826 36.5037 39.9408 36.1908C39.2706 34.7221 38.2189 33.5577 36.9984 32.8531C36.3299 32.4679 35.5787 32.3061 34.9474 31.8144C34.4797 31.4504 34.0847 31.0992 33.5141 31.0566C33.5141 31.0566 34.6232 32.4849 33.2761 33.5769C31.929 34.6689 29.1689 34.1516 28.725 31.1204C28.6186 30.3946 28.6119 29.9135 28.6676 29.5878C28.6034 29.6006 28.5393 29.6134 28.4717 29.6389C28.1139 29.7666 27.7897 30.0391 27.5399 30.4074C27.2901 30.7799 27.1111 31.2418 26.9913 31.725C26.8765 32.206 26.8427 32.7127 26.971 33.1873C27.0942 33.662 27.3458 34.0877 27.5855 34.522C27.8269 34.9562 28.0565 35.416 28.2101 35.9162C28.3637 36.4143 28.4464 36.9422 28.4751 37.4701C28.4228 36.9444 28.3148 36.4292 28.1392 35.9545C27.9653 35.4777 27.7222 35.052 27.4623 34.6391C27.2057 34.2261 26.9204 33.8132 26.7532 33.2874C26.5827 32.7616 26.5912 32.1613 26.6942 31.6249C26.7988 31.0906 26.9626 30.5627 27.2327 30.1008C27.5028 29.6411 27.8843 29.2622 28.3249 29.0642C28.5393 28.9642 28.7891 28.9067 28.9984 28.8897L29.3867 28.8535C29.6804 28.7853 30.0096 28.7364 30.2797 28.4277C30.2797 28.4277 30.5329 28.0723 30.9094 27.936C31.2875 27.7998 31.6032 28.0701 31.4057 28.5299C31.2943 28.7917 31.2166 28.896 31.1694 28.9365C31.3061 28.8641 31.6859 28.6342 31.9104 28.1766C32.0641 27.8637 32.2092 27.4635 32.3899 27.1378C32.3814 26.9632 32.427 26.7866 32.5384 26.6546L32.6785 26.495C32.5367 26.463 32.3544 26.4694 32.1873 26.6163C32.1873 26.6163 32.3882 26.3502 32.3426 25.9734C32.3426 25.9734 31.88 26.7483 31.2538 27.0271C31.2538 27.0271 31.4361 26.6099 31.4006 26.3523C31.4006 26.3523 30.9617 27.0122 30.5093 27.1974C30.5093 27.1974 30.6579 26.8632 30.6342 26.6227C30.6342 26.6227 30.1464 27.306 29.8054 27.5656C29.8054 27.5656 29.964 27.2634 30.0383 26.7248C30.1126 26.1863 30.408 25.801 30.3388 26.4141C30.3388 26.4141 30.6157 26.3374 30.7203 25.7308C30.825 25.1241 31.1373 25.3029 30.9853 25.9181C30.9853 25.9181 31.2571 25.8989 31.3956 25.3136C31.5323 24.7261 31.7264 24.294 31.9965 24.5579C32.2649 24.8197 32.0911 25.1667 32.0911 25.1667C32.0911 25.1667 32.4236 24.89 32.4017 24.5004C32.3797 24.1109 32.6616 23.7384 32.8338 24.5366C32.8338 24.5366 33.06 23.517 32.4776 22.7039C31.8952 21.8907 31.7231 22.4719 31.6235 22.7826C31.5239 23.0934 31.2267 23.7469 30.1632 24.4153C30.1632 24.4153 30.2966 24.0066 30.0096 24.0513C29.7226 24.0981 29.4475 24.1577 29.2888 24.0917C29.1301 24.0236 28.8955 23.6469 28.1645 24.4132C27.4336 25.1773 27.4926 25.039 27.2445 25.1795C26.9963 25.32 26.8005 25.1433 26.3937 25.6009C25.9852 26.0586 25.9649 26.1586 25.7151 26.182C25.7151 26.182 26.0712 26.3992 26.3278 26.2885C26.5861 26.1799 26.7769 25.6988 27.5045 25.9373C27.5045 25.9373 27.0352 25.8393 26.5186 26.4673C26.002 27.0952 25.6762 27.4273 25.4635 27.4145C25.4635 27.4145 25.8214 27.7551 26.365 27.4656C26.9086 27.1761 26.8765 27.0505 27.1381 27.0803C27.1381 27.0803 25.9852 28.068 25.7252 29.7943C25.4669 31.5206 25.7167 32.1422 25.7167 32.1422C25.7167 32.1422 24.3561 29.8646 24.79 28.2404C25.2221 26.6142 25.5834 26.7057 25.5834 26.7057C25.5834 26.7057 25.3943 26.3715 24.7478 26.7291C24.2042 27.0314 23.583 26.876 23.0225 26.7206C21.9624 26.4268 20.9276 26.1799 19.837 26.1693C19.2192 26.165 18.571 26.1884 17.97 26.4204C17.6661 26.5375 17.3758 26.7099 17.1276 26.9654C17.0128 27.0824 16.8811 27.2251 16.8035 27.389C16.7393 27.5231 16.736 27.7615 16.6381 27.8637C16.6381 27.8637 17.6712 26.793 19.5804 27.8977C21.4897 29.0025 20.9478 30.4542 20.9478 30.4542C20.9478 30.4542 23.1204 29.6219 23.9932 32.2422C23.9932 32.2422 25.109 31.8655 25.396 33.2704C25.4061 33.3193 25.4129 33.3683 25.4213 33.4151C25.5547 32.9383 25.7134 32.6147 25.7134 32.6147C25.5665 33.6024 25.7944 34.8902 25.7944 34.8902C25.7944 34.8902 25.5547 35.1457 25.1968 35.218C25.1867 35.2223 25.1765 35.2244 25.1664 35.2266C25.1597 35.2266 25.1529 35.2266 25.1462 35.2287C25.1023 35.2351 25.0567 35.2393 25.0094 35.2372C25.0027 35.2372 24.9959 35.2372 24.9892 35.2372C24.9824 35.2372 24.979 35.2351 24.9723 35.2351C24.9166 35.2308 24.8609 35.2244 24.8001 35.2074C24.0202 34.9882 24.3578 32.4615 22.5904 31.4525C22.5904 31.4525 22.9702 32.1081 22.9617 32.7041C22.9617 32.7041 22.4334 31.2035 21.2618 31.8293C21.2618 31.8293 22.1042 32.0805 22.3034 33.1001C22.3034 33.1001 21.3918 32.3657 21.0508 33.2001C21.0508 33.2001 21.7632 33.1001 22.116 34.0409C22.4688 34.9818 23.3027 35.3138 23.3027 35.3138C23.3027 35.3138 23.8564 36.1993 24.319 36.6613C24.7815 37.1232 25.4044 38.3088 25.7488 37.9682C26.0257 37.6936 25.7404 37.1721 25.9733 36.5037C26.1219 36.9593 26.3262 37.4063 26.6266 37.8299C27.6513 39.2795 29.5977 39.554 29.5977 39.554C29.5977 39.554 29.4981 39.1092 29.1706 38.6409C28.6557 37.898 28.9461 36.5782 28.9461 36.5782C28.9461 36.5782 28.9174 37.8852 29.3074 38.3365C29.6973 38.7877 30.1075 39.3093 29.959 40.0202C29.959 40.0202 29.2449 40.5758 28.6946 40.3906C28.1459 40.2054 26.9389 38.6792 25.9902 40.2735C25.9902 40.2735 26.5692 40.1564 27.0571 40.5715C27.0571 40.5715 25.9852 40.4779 25.997 41.638C25.997 41.638 26.8275 41.2867 27.2276 41.7721C27.2276 41.7721 26.706 41.9998 26.7245 42.9407C26.7245 42.9407 27.2377 42.234 27.9451 42.4596C28.6541 42.6852 29.8239 41.7359 30.3743 41.4953C30.9246 41.2548 31.5779 41.0462 32.1772 41.1356C32.7764 41.225 32.7731 40.4076 32.319 40.2203C31.8632 40.033 31.6251 39.9798 31.3027 39.5221C31.3027 39.5221 31.956 39.9095 32.6819 40.0713C33.4112 40.2331 34.1371 40.546 34.1371 40.546C34.1371 40.546 34.4713 39.3029 35.4302 39.0198C35.4302 39.0198 34.5439 39.5349 34.2873 41.1143C34.029 42.6938 34.9457 43.2919 35.9332 43.5771C36.9191 43.8624 37.7631 43.3749 38.3776 43.5878C38.3776 43.5878 37.7412 43.5942 37.0339 44.0838C36.3249 44.5733 34.7887 43.541 34.3903 43.6176C33.9902 43.6942 33.2592 43.4303 32.9317 44.1817C32.9317 44.1817 33.4129 44.1008 33.8653 44.3222C33.8653 44.3222 33.0229 44.2306 32.8051 45.5248C32.8051 45.5248 33.634 44.916 34.5473 45.395C34.5473 45.395 33.9109 45.6909 33.8568 46.6892C33.8568 46.6892 34.5068 45.6802 35.5416 45.8697C36.5781 46.0591 37.2955 44.9075 38.2054 45.1289C39.117 45.3524 40.1029 45.2098 39.7568 44.1689C39.4344 43.2025 39.2841 43.1152 39.2656 43.1088C39.3044 43.1195 39.8682 43.326 40.2362 44.5308C40.2362 44.5308 42.7616 44.8245 42.505 47.547C42.2468 50.2674 38.6781 48.573 37.704 50.3164C37.228 51.1678 37.5454 51.7894 37.9961 52.2023C37.6331 52.2385 36.9224 51.9575 36.9224 51.9575C37.466 53.041 38.7473 53.4795 38.7473 53.4795L38.8672 51.4062C38.7186 51.7063 38.4603 51.9618 38.332 52.0789C38.0434 51.6446 37.883 51.072 38.3523 50.4824C39.3179 49.2648 40.8743 50.9635 42.5759 50.112C44.1965 49.301 45.5403 44.5435 42.7819 41.3016C42.5692 41.4464 42.3481 41.5102 42.1674 41.5486M28.9039 25.4179C28.9917 25.3136 29.0525 25.1837 29.1149 25.056C29.2584 24.775 29.591 24.4174 29.8746 24.5898C29.9843 24.6558 30.0316 24.7729 30.0079 24.8857C30.0079 24.8815 29.8779 24.6643 29.466 25.2156C29.0069 25.8308 28.4734 25.6839 28.4734 25.6839C28.5967 25.7137 28.8178 25.5179 28.9039 25.4179ZM31.1812 28.9407C31.1491 28.9578 31.1305 28.9663 31.1305 28.9663C31.1305 28.9663 31.1474 28.9727 31.1812 28.9407ZM55.3786 30.1924C54.6325 29.7432 53.8526 29.3175 53.4761 28.564C53.4761 28.564 54.0754 28.6555 54.3472 29.0025C54.3472 29.0025 54.2628 24.9772 51.3963 23.3467C51.2208 23.2467 51.0435 23.136 50.8663 23.0147C47.1642 22.3569 44.551 27.1612 44.551 27.1612L42.1725 24.7921C42.1421 25.2199 41.9412 25.5392 41.7859 26.1522C41.7353 26.3566 41.7184 26.5716 41.7184 26.7674C42.2096 27.5763 42.9591 28.2681 44.1594 28.332C44.1594 28.332 43.3947 30.6649 43.9636 32.2742C44.5342 33.8834 45.753 35.2755 45.5774 35.8758C45.4019 36.4761 45.0355 37.2126 44.1982 37.4297C43.3592 37.6468 42.0695 37.9022 41.6441 38.3897C41.2187 38.8771 40.8 39.9351 40.5722 40.199C40.3459 40.463 39.3533 40.8759 39.2959 41.9871C39.2959 41.9871 40.4928 42.6661 41.4061 42.4021C41.4061 42.4021 41.5968 42.251 41.6002 41.9828C41.6002 41.7146 41.6239 41.1058 41.8214 41.0164C42.0189 40.927 42.5287 40.9291 42.8308 40.3608C43.133 39.7946 43.4791 39.3838 44.1915 39.1177C44.9039 38.8516 45.9505 38.3067 46.673 38.0576C47.3955 37.8086 47.6656 37.7128 47.6842 37.5063C47.6842 37.5063 47.8733 37.1317 47.7652 36.6527C47.6572 36.1738 47.6369 35.7672 47.7331 35.1095C47.831 34.4517 47.8547 34.2027 47.8547 34.2027C47.8547 34.2027 49.4061 34.1984 50.8663 32.7893C52.1746 31.527 52.3906 29.8497 52.421 29.5155C52.4244 29.4772 52.4244 29.4559 52.4244 29.4559C52.4244 29.4559 53.8002 30.5585 53.1317 32.2507C52.4632 33.943 50.5303 35.2947 50.2569 37.6127C50.0273 39.5519 50.6654 40.5566 50.6654 40.5566C50.6654 40.5566 50.4341 38.7622 51.7306 36.9954C52.6945 35.6821 53.6483 35.6885 53.6483 35.6885C53.6483 35.6885 51.9585 36.7081 51.5196 39.041C51.4892 39.1986 51.4588 39.3901 51.4318 39.5924C51.7205 38.8218 52.2725 37.7085 53.1571 37.2913C55.6656 36.1057 58.3801 32.0719 55.3786 30.1945M60.0547 11.2945C58.1522 9.68736 56.1923 10.311 55.4022 10.8283C54.5329 11.3966 53.4744 10.824 53.7597 11.1263C53.7597 11.1263 55.0072 12.6355 56.508 11.7457C56.508 11.7457 55.4107 13.1485 53.8779 11.7372C52.9427 10.8773 51.945 10.2365 50.9287 9.80443C50.5185 9.36593 50.0307 8.68903 50.0425 7.96317C50.0475 7.6822 50.424 7.26924 50.5894 6.33478C50.7565 5.40031 50.2923 4.8192 50.2332 4.62549C50.1742 4.43179 50.2501 4.35516 50.3176 4.09334C50.3852 3.83152 50.868 3.84855 51.0199 4.3509C51.1701 4.85326 51.7559 5.60466 52.3569 5.28111C52.9578 4.95756 52.7249 4.32323 52.6388 4.21254C52.5544 4.10186 52.4902 4.24447 52.5291 4.3807C52.5679 4.51694 52.4953 5.00865 51.9973 4.42115C51.4993 3.83365 51.7981 2.78849 51.4369 2.22228C51.0756 1.65607 50.1961 1.6433 49.7994 2.18184C49.4027 2.72251 49.7234 3.27169 49.9074 3.60376C50.0931 3.93795 49.7825 4.11888 49.7825 4.11888C49.0414 3.7187 48.4827 3.90602 48.1433 4.12527C48.1957 4.8639 48.6734 5.46204 48.822 5.62808C48.8912 5.59828 48.9638 5.58125 49.0397 5.58763C49.374 5.6153 49.6272 5.9793 49.6053 6.40077C49.585 6.79243 49.3301 7.08618 49.0262 7.10321C48.9891 7.39909 48.957 7.70135 48.8608 7.97382C48.692 8.45063 48.324 8.70393 48.086 8.82314C49.6069 9.04664 49.9614 9.77676 49.9614 9.77676C48.9013 8.99556 47.6217 9.26376 47.3888 9.32124C46.6224 9.549 46.1885 10.0216 46.3269 10.3643C46.3269 10.3643 47.8834 9.549 49.1376 10.6197C50.3936 11.6883 50.0036 11.9948 51.9045 13.0825C53.8053 14.1724 55.0157 13.9787 56.6025 12.8441C58.1893 11.7095 60.735 10.9667 61.1503 14.8237C61.1503 14.8237 59.7272 12.7057 57.3942 14.1298C55.0596 15.5538 55.0376 17.4164 53.3411 16.3563C51.6428 15.2963 51.7154 14.0915 50.7025 13.3954L50.3902 13.7637C50.3902 13.7637 50.7667 13.7637 51.1499 14.9536C51.474 15.9561 52.4447 17.8953 54.0686 18.0997C55.6926 18.3061 56.4961 16.8715 57.0566 16.152C57.6187 15.4325 58.5438 14.5491 59.8369 15.1068C61.13 15.6645 61.3512 16.5777 61.6516 16.4564C61.9504 16.3329 61.9572 12.8994 60.0547 11.2923M42.7751 16.8097C42.819 16.8757 42.8511 16.9523 42.8882 17.0247L44.9883 14.8046C44.7536 14.8386 44.5409 14.6747 44.3974 14.5044L42.5135 16.4947C42.6063 16.5905 42.6958 16.6948 42.7751 16.8097ZM49.5057 15.705C49.5057 15.705 47.8142 15.9945 46.3185 14.9663C46.3185 14.9663 46.0535 14.9365 45.6112 15.3601C45.2533 15.7028 45.0136 16.401 44.4362 16.7288C44.4362 16.7288 45.4407 16.433 46.1244 17.5313C46.7135 18.4786 46.6274 19.1831 47.5255 19.1619C48.4202 19.1427 49.0921 18.0252 50.3227 18.585C50.3227 18.585 49.9901 17.9762 49.9766 17.0162C49.9648 16.0562 49.5057 15.7007 49.5057 15.7007M30.4705 14.8918C30.4705 14.8918 30.4401 14.1915 30.668 13.9808C30.8959 13.7701 31.1035 13.8595 31.3213 13.9489C31.5374 14.0404 31.7906 13.9595 31.9746 13.836C32.1569 13.7105 32.3561 13.5487 32.7174 13.6317C33.0786 13.7147 33.688 13.6061 34.186 13.5806C34.684 13.5551 35.2884 13.6253 35.5753 13.9957C35.734 14.2 35.9163 14.63 36.0649 15.0855C36.1679 14.415 36.3873 13.6104 36.8667 13.0591C36.8127 12.8739 36.779 12.7313 36.7536 12.6717C36.6878 12.5184 36.3569 11.999 36.0953 11.9118C35.8336 11.8245 35.42 11.8671 35.1432 11.9692C34.8646 12.0735 32.535 12.4652 32.2936 12.4524C32.0539 12.4397 31.8024 12.3545 31.507 12.2715C31.2116 12.1906 30.7845 12.1055 30.5262 12.3652C30.2696 12.6249 30.0974 13.057 29.9303 13.2251C29.7632 13.3954 29.2179 13.4486 28.941 13.7594C28.6659 14.0702 28.5291 14.7173 28.5291 14.7173C28.5291 14.7173 29.1791 15.1579 29.6467 15.1132C30.1143 15.0685 30.4705 14.8876 30.4705 14.8876M42.3075 21.7779C42.7279 21.5182 43.474 21.3969 44.4633 20.918C45.9691 20.1878 46.0518 19.4003 46.04 18.6489C46.0281 17.8974 45.4086 16.6863 44.1206 17.1993C43.7509 17.3483 43.4588 17.576 43.1904 17.84L43.2495 18.0848L41.3082 19.9026C41.3892 20.3283 41.6222 21.0542 42.3058 21.7779M35.0824 4.91924C35.0689 5.2726 35.0875 6.0538 34.5608 6.96911C36.1696 7.35865 36.6068 8.57196 36.7233 9.28079C36.9883 9.04451 37.3057 8.80398 37.6467 8.66136C38.1497 8.45063 39.6504 7.82268 39.7484 5.86009C39.8463 3.89751 39.2149 2.72251 39.2149 2.72251C39.2149 2.72251 40.0674 3.38025 40.1231 5.18958C40.1788 6.99891 39.7956 7.55235 39.0613 8.62518C39.0613 8.62518 39.0984 9.55964 38.5785 10.3515C38.3033 10.773 38.045 11.403 37.8543 12.0693C38.0569 12.3162 38.2848 12.561 38.5127 12.776C38.8435 13.0868 39.1947 13.3677 39.5627 13.6019C40.3004 14.0723 41.114 14.3618 41.9463 14.3959C42.3632 14.4193 42.7836 14.3703 43.1955 14.2618C43.3947 14.2213 43.5854 14.1426 43.7813 14.0766C43.8589 13.8509 43.8674 13.2081 43.8471 12.9548C43.8133 12.4844 43.8049 12.3503 43.7627 11.7542C43.2394 4.15933 40.0016 3.29936 39.9965 3.29724C40.0049 3.29724 43.8184 3.56119 44.0564 11.1731C44.2522 8.95937 44.7705 6.75625 43.6057 4.06567C42.2991 1.04941 39.4293 2.03709 39.4293 2.03709C39.5897 1.2197 39.0123 0.232021 38.6173 0.0276731C38.6241 0.0468307 38.8266 0.398052 38.7119 0.751403C38.6393 0.97278 38.565 1.48365 38.6274 1.78166C38.6274 1.78166 38.2966 1.4134 37.7682 1.65607C37.7682 1.65607 37.5808 0.251177 36.7131 0C36.7131 0 36.8364 0.291623 36.7722 0.783334C36.7097 1.27505 36.811 1.82423 36.9444 1.986C36.9444 1.986 36.389 1.59434 35.7678 2.45856C35.2445 3.18868 35.0605 3.1163 35.0166 3.07586C35.0875 3.15675 35.4842 3.5548 36.1881 3.20783C36.1881 3.20783 35.9957 3.61866 35.8201 3.80385C35.6445 3.98904 35.0942 4.50203 35.079 4.92137M36.6709 5.75792C36.9427 5.56209 37.0778 5.44289 37.2094 5.67491C37.2094 5.67491 36.9275 5.92821 36.8921 6.17087C36.8583 6.41354 36.5578 6.55403 36.5578 6.55403C36.5578 6.55403 36.3687 6.33691 36.3839 6.04103C36.3839 6.04103 36.2118 6.07083 36.1594 5.86861C36.1594 5.86861 36.4008 5.95375 36.6726 5.76005M33.5732 9.97685C33.5226 10.2514 33.9497 10.4217 34.1523 10.443C34.3548 10.4643 34.6654 10.6644 34.8478 10.2706C35.0318 9.8768 35.1516 9.7576 35.4622 9.65969C35.7728 9.56177 35.6175 9.83423 35.5568 9.97472C35.4977 10.1152 35.1398 10.3813 35.2462 10.5494C35.3525 10.7155 35.631 11.1135 35.8184 10.7772C35.9585 10.5239 36.0311 10.1599 36.1915 9.86616C36.0801 8.08451 34.8191 7.56086 34.267 7.41612C34.2451 7.44379 34.2232 7.47359 34.1995 7.50339C33.3048 8.64007 33.3639 8.48256 33.4314 9.05516C33.499 9.62776 33.6222 9.70226 33.5715 9.97685" fill="#F22129"/>
<path d="M0.00275868 74.1916C0.00275868 73.9588 0.026207 73.7943 0.0731036 73.6963C0.12 73.5983 0.21931 73.5493 0.369655 73.5493H2.40276C2.56138 73.5493 2.66345 73.5895 2.71035 73.6701C2.75724 73.7506 2.78069 73.8923 2.78069 74.0971V74.6992C2.78069 75.0387 2.81793 75.3187 2.89379 75.5428C2.96966 75.765 3.06897 75.9453 3.19035 76.0836C3.3131 76.2218 3.4469 76.3199 3.59035 76.3776C3.73517 76.4354 3.87862 76.4651 4.02345 76.4651C4.19724 76.4651 4.35862 76.4266 4.51034 76.3514C4.66207 76.2761 4.7931 76.1676 4.90483 76.0293C5.01655 75.8911 5.10759 75.7248 5.17517 75.527C5.24414 75.331 5.27724 75.1122 5.27724 74.8724C5.27724 74.5504 5.23862 74.2634 5.16276 74.0096C5.0869 73.7558 4.97103 73.5073 4.81655 73.2675C4.66207 73.026 4.46207 72.7792 4.21655 72.5237C3.97104 72.2699 3.68276 71.9724 3.35172 71.6346C2.76828 71.064 2.26483 70.5617 1.84276 70.1294C1.42207 69.6971 1.07448 69.2596 0.8 68.8185C0.525517 68.3775 0.324138 67.8909 0.194483 67.3606C0.0648276 66.8303 0 66.181 0 65.4144C0 64.5498 0.131035 63.8112 0.394483 63.2004C0.657931 62.5895 0.986207 62.0925 1.37931 61.7092C1.77241 61.3259 2.19724 61.0476 2.65517 60.8726C3.1131 60.6993 3.53655 60.6118 3.92552 60.6118C4.49517 60.6118 5.01931 60.7273 5.49931 60.9584C5.97931 61.1911 6.3931 61.5184 6.74345 61.942C7.09241 62.3655 7.36552 62.8783 7.56 63.4804C7.75448 64.0825 7.85241 64.7545 7.85241 65.4931V66.2702C7.85241 66.4662 7.82621 66.5975 7.77103 66.6658C7.71586 66.7323 7.6 66.7655 7.41931 66.7655H5.44138C5.29655 66.7655 5.20552 66.7305 5.16552 66.6588C5.1269 66.587 5.10621 66.4592 5.10621 66.272V65.5089C5.10621 65.2778 5.08 65.0591 5.03035 64.8543C4.97931 64.6495 4.90621 64.471 4.80966 64.3187C4.71173 64.1682 4.58897 64.0475 4.44138 63.9582C4.29379 63.8689 4.12138 63.8234 3.9269 63.8234C3.79035 63.8234 3.65103 63.8549 3.51035 63.9179C3.36966 63.981 3.24414 64.0772 3.13241 64.212C3.02069 64.3467 2.92828 64.52 2.85655 64.7335C2.78483 64.9471 2.74897 65.2061 2.74897 65.5089C2.74897 65.8309 2.78759 66.1109 2.86207 66.3525C2.93793 66.594 3.04552 66.818 3.18621 67.028C3.3269 67.2363 3.49793 67.4411 3.69931 67.6354C3.90069 67.8314 4.12414 68.0467 4.36966 68.2777C4.88966 68.759 5.37379 69.2263 5.82483 69.6761C6.27448 70.1259 6.66759 70.6107 7.00276 71.127C7.33793 71.6451 7.60276 72.2174 7.79724 72.8475C7.99172 73.4758 8.08828 74.2144 8.08828 75.0615C8.08828 75.6863 7.98897 76.2779 7.79172 76.8414C7.5931 77.4032 7.31586 77.8968 6.95862 78.3186C6.60138 78.7421 6.17241 79.0799 5.67173 79.3285C5.17104 79.5787 4.61379 79.703 4.00138 79.703C3.33103 79.703 2.74759 79.5717 2.24966 79.3092C1.7531 79.0467 1.33655 78.6914 1.00138 78.2451C0.666207 77.7988 0.415172 77.2895 0.249655 76.7137C0.0841379 76.1378 0 75.534 0 74.9004V74.1916H0.00275868Z" fill="#F22129"/>
<path d="M17.3573 78.9136C17.429 79.2444 17.3614 79.4089 17.1518 79.4089H14.9132C14.8056 79.4089 14.7077 79.3757 14.6208 79.3092C14.5339 79.2426 14.4842 79.1289 14.4704 78.9679L14.189 76.7329H11.767L11.4966 78.9679C11.4746 79.1289 11.4208 79.2426 11.3339 79.3092C11.247 79.3757 11.1532 79.4089 11.0525 79.4089H8.81386C8.59731 79.4089 8.52559 79.2391 8.59731 78.8996L11.5946 61.3609C11.6594 61.0493 11.8014 60.8936 12.0166 60.8936H13.9408C14.1642 60.8936 14.3077 61.0493 14.3725 61.3609L17.3573 78.9136ZM12.1242 73.8958H13.8332L13.098 67.9556L12.9794 66.3909L12.8608 67.9556L12.1256 73.8958H12.1242Z" fill="#F22129"/>
<path d="M18.4606 61.4134C18.4606 61.2524 18.4923 61.1264 18.5571 61.0319C18.622 60.9391 18.7157 60.8918 18.8385 60.8918H20.8716C20.9654 60.9006 21.0551 60.9409 21.1419 61.0126C21.2288 61.0844 21.2937 61.1964 21.3364 61.3469L24.0178 71.2215L24.2882 72.76L24.2344 71.3545L24.1157 61.4134C24.1157 61.2716 24.1461 61.1474 24.2082 61.0459C24.2688 60.9426 24.3682 60.8918 24.5061 60.8918H26.5061C26.593 60.8918 26.6757 60.9286 26.7544 60.9986C26.833 61.0704 26.873 61.2034 26.873 61.3994V78.9014C26.873 79.2409 26.7364 79.409 26.462 79.409H24.4509C24.3488 79.409 24.2509 79.3757 24.1544 79.3092C24.0564 79.2427 23.9861 79.1324 23.9433 78.9819L21.3378 69.5501L21.0564 68.2654L21.1213 69.6043L21.2192 78.9032C21.233 79.2427 21.1075 79.4107 20.8413 79.4107H18.8413C18.5888 79.4107 18.4633 79.2409 18.4633 78.9032V61.4134H18.4606Z" fill="#F22129"/>
<path d="M39.6994 60.8918H37.4608C37.3959 60.8918 37.3256 60.9251 37.2497 60.9916C37.1752 61.0581 37.1366 61.1946 37.1366 61.3994V74.7307C37.1366 74.9687 37.1104 75.1945 37.0608 75.4098C37.0111 75.6233 36.9325 75.8106 36.829 75.9716C36.7242 76.1326 36.5932 76.2586 36.4346 76.3461C36.2883 76.4284 36.1132 76.4686 35.9187 76.4756C35.749 76.4686 35.5946 76.4301 35.4621 76.3461C35.3173 76.2586 35.1973 76.1396 35.0994 75.9926C35.0015 75.8438 34.9283 75.6758 34.8787 75.4833C34.8525 75.3853 34.8332 75.2855 34.8208 75.1822C34.8083 75.0755 34.8056 74.9705 34.8001 74.8637C34.7904 74.7009 34.6649 74.5802 34.5339 74.6029C34.4815 74.6134 34.4304 74.6292 34.378 74.6414L34.1808 74.6869C34.0994 74.7062 34.0166 74.7254 33.9339 74.7447C33.8415 74.7657 33.7477 74.7884 33.6539 74.8094C33.5546 74.8322 33.4566 74.8549 33.3573 74.8777C33.2594 74.9004 33.1601 74.9232 33.0608 74.9477C32.9683 74.9687 32.8759 74.9915 32.7821 75.0125L32.5366 75.0702L32.3408 75.1157C32.298 75.1262 32.2539 75.1367 32.2111 75.1455C32.1959 75.149 32.1808 75.1525 32.1642 75.156C31.9739 75.1997 31.8497 75.422 31.8718 75.6618C31.9159 76.1396 32.0139 76.5824 32.1697 76.9884C32.3904 77.559 32.6884 78.0456 33.0677 78.4464C33.4456 78.8471 33.8842 79.1569 34.3821 79.3757C34.8801 79.5945 35.4056 79.703 35.9601 79.703C35.9725 79.703 35.9835 79.7012 35.9959 79.7012C36.0083 79.7012 36.0166 79.703 36.0263 79.703C36.5159 79.703 36.9849 79.6085 37.4318 79.4282C37.469 79.4142 37.5077 79.402 37.5449 79.388C37.5573 79.3827 37.5683 79.3757 37.5808 79.3705C37.5835 79.3705 37.5863 79.367 37.589 79.367C37.5973 79.3635 37.6042 79.3582 37.6111 79.3565C38.0842 79.1482 38.5035 78.8541 38.8649 78.4726C39.2428 78.0718 39.5435 77.5818 39.767 77.0077C39.9904 76.4319 40.1021 75.7843 40.1021 75.0615V61.4677C40.1021 61.0844 39.9697 60.8918 39.7021 60.8918" fill="#F22129"/>
<path d="M41.5807 65.2534C41.5807 64.5306 41.6897 63.8812 41.9103 63.3072C42.131 62.7313 42.429 62.243 42.8083 61.8422C43.1876 61.4415 43.6248 61.1352 44.1228 60.9251C44.6193 60.7169 45.1462 60.6101 45.7007 60.6101C46.2552 60.6101 46.7834 60.7151 47.2841 60.9251C47.7848 61.1352 48.2248 61.4397 48.6041 61.8352C48.9821 62.2325 49.2828 62.7191 49.5062 63.2932C49.7297 63.869 49.8414 64.5218 49.8414 65.2534V75.0615C49.8414 75.7843 49.7297 76.4319 49.5062 77.0077C49.2828 77.5835 48.9821 78.0719 48.6041 78.4726C48.2248 78.8734 47.7848 79.1797 47.2841 79.388C46.7834 79.598 46.2552 79.703 45.7007 79.703C45.1462 79.703 44.6193 79.5945 44.1228 79.3758C43.6248 79.157 43.1876 78.8472 42.8083 78.4464C42.4303 78.0456 42.131 77.559 41.9103 76.9885C41.6897 76.4179 41.5807 75.7756 41.5807 75.0615V65.2534ZM44.5434 74.8725C44.5434 75.086 44.5683 75.289 44.6193 75.4816C44.669 75.6723 44.7434 75.8421 44.84 75.9891C44.9366 76.1361 45.0579 76.2551 45.2028 76.3444C45.3476 76.4337 45.5131 76.4792 45.7007 76.4792C46.0828 76.4792 46.3738 76.3304 46.5766 76.0364C46.7779 75.7423 46.8786 75.3818 46.8786 74.953V65.4547C46.8786 65.2411 46.8524 65.0364 46.8028 64.8386C46.7531 64.6426 46.6772 64.4693 46.5766 64.317C46.4745 64.1648 46.3531 64.0458 46.2083 63.9547C46.0634 63.8655 45.9021 63.82 45.7214 63.82C45.5407 63.82 45.3683 63.8655 45.2234 63.9547C45.0786 64.044 44.9559 64.1648 44.8552 64.317C44.7545 64.4693 44.6772 64.6426 44.6235 64.8386C44.5697 65.0346 44.5421 65.2394 44.5421 65.4547V74.8742L44.5434 74.8725Z" fill="#F22129"/>
<path d="M51.3987 61.4134C51.3987 61.2524 51.4318 61.1264 51.4952 61.0319C51.5614 60.9391 51.6552 60.8901 51.7766 60.8901H55.6801C56.2497 60.8901 56.7807 61.0179 57.2704 61.2717C57.7601 61.5272 58.1821 61.872 58.5366 62.3095C58.8897 62.7471 59.167 63.2564 59.3683 63.841C59.5711 64.4238 59.6704 65.0521 59.6704 65.7207V67.2591C59.6704 67.7404 59.6276 68.1867 59.5408 68.5963C59.4552 69.0058 59.3339 69.3804 59.1794 69.7199C59.0249 70.0594 58.8414 70.364 58.6276 70.6352C58.4152 70.9083 58.1863 71.1411 57.9408 71.3388L59.8221 78.8839C59.8511 79.0082 59.8442 79.1272 59.8001 79.2392C59.7573 79.3512 59.6842 79.4055 59.5835 79.4055H57.258C57.1504 79.4055 57.0704 79.3792 57.0207 79.325C56.9711 79.2707 56.9311 79.1552 56.9021 78.9767L55.3132 72.1929H54.3614V78.9084C54.3614 79.2375 54.2387 79.4037 53.9945 79.4037H51.778C51.5256 79.4037 51.4001 79.2392 51.4001 78.9084V61.4134H51.3987ZM54.3614 64.142V69.1598H55.4539C55.8566 69.1598 56.167 69.0076 56.3835 68.7048C56.6001 68.4002 56.709 68.0222 56.709 67.5671V65.7207C56.709 65.2394 56.5932 64.8561 56.3628 64.5708C56.1325 64.2855 55.8263 64.1438 55.4428 64.1438H54.3614V64.142Z" fill="#F22129"/>
<path d="M61.331 63.3071C61.5503 62.7313 61.851 62.243 62.2289 61.8422C62.6069 61.4414 63.0469 61.1351 63.5475 60.9251C64.0482 60.7168 64.5765 60.6118 65.1324 60.6118C65.6524 60.6118 66.1089 60.6906 66.5062 60.8446C66.902 61.0021 67.2455 61.2069 67.5338 61.4607C67.822 61.7144 68.0634 62.005 68.2579 62.3305C68.4524 62.656 68.6069 62.9921 68.7227 63.3404C68.8386 63.6887 68.92 64.0352 68.9724 64.3765C69.022 64.7195 69.0469 65.0346 69.0469 65.3199V66.538C69.0469 66.7445 69.0262 66.888 68.982 66.9738C68.9393 67.0578 68.8496 67.1016 68.7117 67.1016H66.6027C66.4731 67.1016 66.3848 67.0613 66.3379 66.9808C66.291 66.9003 66.2675 66.7725 66.2675 66.5922V65.4144C66.2675 65.2183 66.2413 65.0241 66.1917 64.8315C66.142 64.6408 66.0675 64.4693 65.9696 64.317C65.8717 64.1647 65.7517 64.0457 65.6069 63.9564C65.462 63.8672 65.2965 63.8217 65.1103 63.8217C64.7572 63.8217 64.4772 63.9722 64.2717 64.2767C64.0662 64.5813 63.9627 64.9471 63.9627 65.3741V74.8864C63.9627 75.128 63.9931 75.3433 64.0551 75.5358C64.1158 75.7283 64.1972 75.8946 64.2979 76.0381C64.3986 76.1798 64.5186 76.2901 64.6607 76.3654C64.8013 76.4406 64.9544 76.4791 65.12 76.4791C65.2855 76.4791 65.4538 76.4389 65.6013 76.3584C65.7489 76.2779 65.8772 76.1676 65.9848 76.0293C66.0924 75.8911 66.1779 75.73 66.24 75.548C66.3007 75.3643 66.331 75.1665 66.331 74.953V72.3574H65.52C65.3034 72.3574 65.1958 72.2051 65.1958 71.9024V69.8809C65.1958 69.5606 65.3034 69.3996 65.52 69.3996H68.7213C68.9807 69.3996 69.1103 69.5693 69.1103 69.9089V75.0597C69.1103 75.7826 69.0069 76.4301 68.7972 77.0059C68.5875 77.58 68.3034 78.0701 67.942 78.4709C67.582 78.8717 67.16 79.1779 66.6772 79.3862C66.1944 79.5962 65.6758 79.7012 65.12 79.7012C64.5641 79.7012 64.0496 79.5997 63.5531 79.3932C63.0551 79.1884 62.6179 78.8874 62.2386 78.4901C61.8607 78.0928 61.56 77.6063 61.3365 77.0322C61.1131 76.4564 61.0013 75.8001 61.0013 75.0597V65.2533C61.0013 64.5305 61.1117 63.8812 61.331 63.3071Z" fill="#F22129"/>
<path d="M70.6249 61.4134C70.6249 61.2524 70.6566 61.1264 70.7214 61.0319C70.7863 60.9391 70.88 60.8918 71.0028 60.8918H77.6207C77.8304 60.8918 77.9352 61.0581 77.9352 61.3872V63.6607C77.9352 63.9827 77.8304 64.142 77.6207 64.142H73.5876V68.437H76.8001C76.9007 68.437 76.9849 68.472 77.0538 68.5437C77.1228 68.6155 77.1559 68.7362 77.1559 68.9043V71.1918C77.1559 71.3528 77.1242 71.4683 77.0594 71.5401C76.9945 71.6118 76.9076 71.6468 76.8001 71.6468H73.5876V76.1816H77.6745C77.7683 76.1816 77.8469 76.2201 77.9076 76.2954C77.9683 76.3706 78.0001 76.4844 78.0001 76.6366V78.9382C78.0001 79.0992 77.9697 79.2164 77.9076 79.2934C77.8469 79.3687 77.7683 79.4072 77.6745 79.4072H71.0028C70.7504 79.4072 70.6249 79.2374 70.6249 78.8997V61.4134Z" fill="#F22129"/>
</svg>
