<svg width="334" height="125" viewBox="0 0 334 125" fill="none" xmlns="http://www.w3.org/2000/svg">
<path d="M58.6244 52.2608C58.6557 51.9225 58.7536 51.6538 58.9024 51.4299C58.3934 51.0219 57.0112 49.7582 56.1184 47.5044L53.5772 49.9075C53.3227 50.8826 53.3188 51.7732 53.3501 52.2409C55.6877 53.624 57.9588 52.9772 58.5931 52.7434C58.6009 52.5842 58.6126 52.425 58.6244 52.2608ZM67.458 33.2252C68.4839 32.0958 70.9194 30.4092 71.4872 29.8669C72.0549 29.3245 73.3823 27.8867 72.8811 25.802C72.3799 23.7174 70.1324 24.1502 69.0438 24.9861C67.9553 25.8269 67.0429 27.4837 65.3514 29.2847C63.6599 31.0858 64.7758 33.0511 64.7758 33.0511C65.0812 33.7028 66.436 34.3546 67.4619 33.2252M79.1382 49.793C80.2189 47.783 80.6732 45.8625 79.3184 44.9172C75.7747 42.4544 70.9703 49.1462 70.9703 49.1462C66.3186 49.9871 63.5385 54.241 63.5385 54.241L61.4906 51.7185C60.2024 51.9623 59.4663 52.3901 59.6072 53.2608C59.7482 54.1365 59.6464 55.1912 59.6464 55.1912L63.9731 59.6641C74.0401 45.8476 80.8963 53.2658 80.8963 53.2658C77.8657 49.0766 74.4552 49.0666 73.5781 49.1462C75.7552 48.7333 77.7365 49.2109 79.1422 49.7881M59.7638 39.519C59.4271 39.0115 59.0199 38.6234 58.5657 38.3398L37.5506 63.1965C37.4371 63.3309 37.5428 63.4951 37.6681 63.3707L60.4804 41.2205C60.3355 40.5986 60.1045 40.0215 59.7678 39.519M58.5892 53.8181C56.8193 54.838 54.051 53.9624 52.7745 53.5345C52.845 54.8281 53.0956 56.1117 53.3344 57.3704C53.4597 58.0222 53.5889 58.669 53.7181 59.3158C53.8865 60.1467 53.9883 61.0074 53.9844 61.8681C53.9805 62.7637 53.8004 63.5697 53.6438 64.4304C53.5419 64.9827 53.4441 65.5598 53.2052 66.0474C52.8254 66.8186 51.7369 68.5998 51.3101 69.0724C50.8833 69.5451 49.4658 69.958 49.1526 70.0127C48.8393 70.0675 49.0742 71.2665 49.0742 71.2665C49.0742 71.2665 49.4619 71.6198 50.4643 71.575C51.4628 71.5302 52.2811 70.978 53.0916 70.5153C53.9022 70.0525 55.0181 70.371 56.463 70.1023C57.9039 69.8336 57.8569 69.5351 58.131 68.6545C58.4051 67.7689 57.6533 66.8285 57.2579 65.6991C56.8663 64.5648 56.7801 62.2164 57.853 58.9725C58.6283 56.6291 58.597 55.1813 58.5892 53.833M69.0321 33.9267C69.0321 33.9267 73.1278 36.2452 76.0136 35.5487C76.0136 35.5487 76.1937 33.2849 77.431 32.0212C78.6723 30.7525 78.9581 29.4639 78.9581 29.4639C78.9581 29.4639 78.1946 29.0211 77.247 28.0011C77.1726 28.3345 77.0786 28.6579 76.9651 28.9763C76.7027 29.6927 76.3347 30.3495 75.904 30.8818C75.0895 31.9018 74.2672 32.9516 73.86 34.3496C73.9892 33.6332 74.2202 32.9366 74.5296 32.2948C74.835 31.653 75.1835 31.056 75.5359 30.4689C75.8726 29.9116 76.1193 29.2897 76.2759 28.638C76.3973 28.1255 76.4639 27.5533 76.4639 27.0459C76.4286 27.0011 76.3973 26.9662 76.366 26.9215C75.0582 25.1154 73.3941 25.3194 73.3941 25.3194C73.3941 25.3194 74.0597 26.9215 73.3706 28.3743C72.004 31.255 69.3727 31.6132 69.036 33.9267M85.7791 11.0601L78.2925 19.0605C78.3786 19.4087 78.5822 19.9958 79.0208 20.4486L86.4134 12.5478C86.5152 11.4233 86.0689 11.1298 85.7791 11.0552M84.5849 24.4388C84.7924 24.2298 85.0116 23.9711 85.1056 23.6527C85.133 23.5582 85.1526 23.4537 85.1565 23.3492C85.1644 23.1402 85.1644 22.9362 85.133 22.7322C85.0469 22.1352 84.7689 21.6377 84.3499 21.3441C84.021 21.1153 83.649 21.0108 83.2809 20.971C80.9668 20.7073 80.0075 21.6825 79.6159 22.379C79.6159 22.379 82.4234 23.1999 84.1776 24.7323C84.2403 24.7871 84.5496 24.4836 84.5888 24.4438M74.3377 13.299C73.0338 12.4483 72.188 10.3785 72.188 10.3785C70.6727 10.5328 70.2342 12.1995 70.2342 12.1995C71.1974 13.3587 72.56 13.7468 73.8678 13.8762C73.9892 13.6423 74.1498 13.4483 74.3377 13.299ZM75.9079 14.8215C75.9392 14.2543 75.5985 13.7617 75.1522 13.7269C74.7058 13.6871 74.3181 14.12 74.2907 14.6872C74.2594 15.2543 74.6001 15.7469 75.0464 15.7817C75.4928 15.8215 75.8766 15.3887 75.9079 14.8215ZM70.9155 18.5231C71.1152 18.4982 71.3814 18.3589 71.4754 18.8465C71.5655 19.3341 71.726 20.0754 71.8356 20.1401C71.9453 20.2098 72.0941 20.1899 72.7519 19.8565C73.441 19.5033 73.86 18.8117 74.1184 18.2694C74.3808 17.7271 74.4982 17.1002 74.5531 16.4733C73.9853 16.2046 73.5898 15.5131 73.6329 14.7071C73.6329 14.6473 73.6642 14.5926 73.6681 14.5379C73.2413 14.5578 72.8185 14.5379 72.3877 14.4583C71.9883 14.3837 71.5576 14.2941 71.1857 14.0752C70.7236 13.8015 70.7589 13.911 70.708 14.115C70.708 14.115 70.5317 14.9807 70.8215 15.6872C71.1113 16.3987 70.7393 17.1897 70.5748 17.8515C70.4065 18.5281 70.5827 18.5679 70.9155 18.5281M85.8692 10.3437C87.3688 10.5974 86.8441 12.6821 86.8441 12.6821L86.155 13.4334C86.0845 13.508 86.0493 13.6224 86.061 13.7369C86.108 14.1747 85.9905 14.7817 85.2936 15.8116C84.4987 16.9808 84.1502 18.5828 83.6686 19.2147C83.1909 19.8416 83.4258 20.3839 83.4258 20.3839C83.8409 20.4486 84.4361 20.4237 85.1878 21.1551C85.9357 21.8864 86.014 22.7124 86.014 22.7124C87.4589 21.6924 87.4941 16.3987 87.733 14.7767C87.9718 13.1548 89.0447 12.0851 89.2836 11.4482C89.4519 10.9955 89.4402 10.3188 89.1974 9.60735L96.6292 1.72644C96.6292 1.72644 96.8368 1.35826 96.4491 0.815953C96.1241 0.368174 95.7874 0.452756 95.7874 0.452756L88.4143 8.26898C87.8465 7.75155 87.3532 7.77145 86.5309 8.62223C85.1722 10.0352 85.6029 10.6621 85.6029 10.6621L85.877 10.3387L85.8692 10.3437ZM26.6418 49.7532C27.699 49.0716 28.3842 48.2009 28.3842 48.2009C28.3842 48.2009 27.7734 46.5989 28.1414 45.8177C28.5095 45.0416 29.0616 44.9968 29.6372 44.9421C30.2128 44.8874 30.7414 44.3849 31.0703 43.8674C31.3992 43.35 31.7399 42.7231 32.6444 42.4694C33.5489 42.2206 34.8841 41.2056 36.0235 40.534C37.163 39.8573 38.6274 39.2752 39.5789 39.7877C40.5304 40.3051 42.2454 42.4544 42.9933 43.8774C43.7412 45.3003 45.0999 48.6487 45.0999 48.6487C45.0999 48.6487 45.6638 49.803 46.5957 49.5443C46.952 49.4448 47.786 48.9721 48.7101 48.395L58.4873 37.4095L58.8828 37.6682L60.7701 35.6482L62.1876 34.1805C62.0584 34.2302 61.937 34.2849 61.8078 34.3248C60.8132 34.683 59.7795 34.8919 58.734 34.9268C56.6431 35.0213 54.5326 34.474 52.5983 33.4292C51.6311 32.9118 50.6992 32.2799 49.8104 31.5535C49.3483 31.1704 48.9059 30.7724 48.4712 30.3445C48.4634 30.3445 48.4517 30.3345 48.4399 30.3296C45.9418 32.663 46.2198 37.7627 46.208 38.5787C46.1924 39.4692 47.3905 42.3649 47.3905 42.3649C47.3905 42.3649 45.143 38.7329 43.7647 37.8771C42.3864 37.0164 41.568 35.5089 41.2979 35.2303C41.0238 34.9516 39.853 34.1407 39.1756 34.2601C38.4982 34.3795 37.5702 34.9914 37.0024 35.5785C36.4308 36.1607 31.3092 39.9668 30.7414 40.2354C30.1697 40.4991 29.5197 40.6086 28.7679 40.7827C28.0161 40.9569 26.955 41.2902 26.5595 42.2156C26.1601 43.146 26.0936 44.3699 25.8351 44.9719C25.5767 45.5789 24.3472 46.38 23.9439 47.4497C23.5406 48.5243 23.7207 50.211 23.7207 50.211C23.7207 50.211 25.5767 50.4348 26.63 49.7532M59.1804 97.0885L59.1021 97.1034C60.5156 98.5263 61.6864 100.317 62.4891 102.372C63.5737 105.143 63.7068 108.412 62.9433 111.273C62.7593 111.995 62.5126 112.686 62.2111 113.338C61.9213 113.995 61.5454 114.617 61.103 115.134C60.2102 116.179 59.0316 116.741 57.8648 116.855C56.6862 116.975 55.5467 116.726 54.4073 116.602C53.8395 116.532 53.2679 116.467 52.7001 116.452C52.1323 116.452 51.5411 116.447 51.0203 116.756C51.5332 116.413 52.1284 116.373 52.7001 116.343C53.2757 116.323 53.8513 116.353 54.423 116.393C55.5624 116.447 56.7253 116.622 57.8295 116.432C58.9376 116.253 59.9949 115.661 60.7623 114.671C61.522 113.686 62.0036 112.363 62.309 111.024C62.9159 108.323 62.6614 105.347 61.6042 102.949C60.8915 101.322 59.897 99.8995 58.7458 98.7502C58.7184 98.8547 58.687 98.9542 58.6518 99.0537C58.5618 99.2726 58.4521 99.4666 58.3346 99.6259C58.272 99.7055 58.2133 99.7801 58.1467 99.8497C58.1154 99.8846 58.0801 99.9194 58.0449 99.9542L57.9862 100.004L57.9548 100.034L57.9039 100.074L57.7551 100.193L57.6259 100.218C57.1208 100.327 56.6353 100.342 56.1615 100.317C55.6955 100.283 55.2374 100.208 54.791 100.103C54.3486 99.994 53.9139 99.8597 53.4832 99.7055C53.2718 99.6308 53.0564 99.5463 52.845 99.4567C52.7393 99.4169 52.6335 99.3671 52.5278 99.3224C52.4221 99.2726 52.3203 99.2278 52.2067 99.1681L51.3688 98.7104L51.4393 98.0238C51.4706 97.7352 51.5215 97.4467 51.5959 97.173C51.6703 96.8994 51.7682 96.6407 51.8817 96.3969C52.1088 95.9143 52.3947 95.5063 52.7001 95.153C53.3109 94.4515 54.0157 93.9739 54.6579 93.5162C54.7362 93.4614 54.8145 93.3968 54.8811 93.342C54.9124 93.3172 54.9437 93.2873 54.9711 93.2525C54.9986 93.2226 55.0299 93.1928 55.0573 93.148C55.1787 92.9938 55.2922 92.8047 55.4097 92.6256C55.5937 92.3271 55.7738 92.0136 55.9579 91.7051C51.6429 87.1179 51.7408 86.6552 44.1719 85.7746C40.5069 85.3467 38.9328 84.675 38.4551 83.9934C38.1928 84.2123 37.9931 84.4461 37.9344 84.6899C37.8325 84.9984 38.0557 85.5208 38.4316 85.9188C39.1834 86.7348 40.2289 87.2423 41.2665 87.5557C41.7912 87.71 42.3237 87.8144 42.8641 87.8642L44.5282 87.9786C45.6442 88.0732 46.764 88.2175 47.8682 88.4861C48.9685 88.7548 50.0571 89.1279 51.0869 89.6951C52.1127 90.2673 53.076 91.0186 53.91 91.9539C52.1637 90.1728 49.9866 89.2871 47.8134 88.9289C46.721 88.7399 45.6168 88.6702 44.5126 88.6503H42.8406C42.2689 88.6304 41.6973 88.5558 41.1334 88.4264C40.0057 88.1528 38.8819 87.7249 37.8834 86.7746C37.6407 86.5258 37.4058 86.2323 37.2139 85.8442C37.0259 85.4661 36.9163 84.9138 37.0181 84.3914C37.4567 82.0779 39.7355 80.9684 41.4232 80.9087C43.0325 80.854 44.587 81.7545 45.468 83.4063C45.468 83.4063 48.3225 80.7296 50.5074 84.1675C50.5074 84.1675 52.8959 83.4909 55.1513 87.7597C55.0299 87.5309 54.9907 87.1279 54.9124 86.8691C54.6736 86.083 54.3799 85.3218 54.051 84.5904C52.4965 81.1575 50.0571 78.436 47.2261 76.7891C45.6755 75.8886 43.9331 75.5105 42.4686 74.3612C41.384 73.5104 40.4677 72.6895 39.1443 72.59C39.1443 72.59 41.7168 75.9284 38.5922 78.4807C35.4675 81.0331 29.0655 79.8241 28.0357 72.7392C27.789 71.0426 27.7734 69.9182 27.9026 69.157C27.7538 69.1868 27.605 69.2167 27.4484 69.2764C26.6183 69.5749 25.8665 70.2118 25.287 71.0725C24.7074 71.9432 24.2924 73.0228 24.0144 74.1522C23.7481 75.2766 23.6698 76.4608 23.9674 77.5703C24.2532 78.6798 24.8367 79.6748 25.3927 80.6898C25.9526 81.7047 26.4851 82.7794 26.8415 83.9486C27.1978 85.1129 27.3896 86.3467 27.4562 87.5806C27.3348 86.3517 27.0842 85.1477 26.677 84.0382C26.2737 82.9237 25.7098 81.9286 25.1068 80.9634C24.5117 79.9982 23.8499 79.033 23.4623 77.8041C23.0668 76.5752 23.0864 75.1721 23.3252 73.9184C23.568 72.6696 23.9478 71.4357 24.5743 70.356C25.2008 69.2814 26.0857 68.3958 27.1077 67.9331C27.605 67.6992 28.1845 67.5649 28.67 67.5251L29.5706 67.4405C30.2519 67.2813 31.0155 67.1669 31.642 66.4454C31.642 66.4454 32.2293 65.6145 33.1025 65.2961C33.9796 64.9777 34.7118 65.6096 34.2537 66.6842C33.9953 67.2962 33.8151 67.54 33.7055 67.6345C34.0227 67.4654 34.9037 66.928 35.4245 65.8583C35.7808 65.127 36.1175 64.1916 36.5365 63.4304C36.5169 63.0224 36.6226 62.6095 36.8811 62.301L37.2061 61.9278C36.8771 61.8532 36.4543 61.8681 36.0666 62.2114C36.0666 62.2114 36.5326 61.5895 36.4269 60.7089C36.4269 60.7089 35.354 62.5199 33.9013 63.1717C33.9013 63.1717 34.3242 62.1965 34.2419 61.5945C34.2419 61.5945 33.2239 63.1368 32.1745 63.5697C32.1745 63.5697 32.5191 62.7886 32.4643 62.2264C32.4643 62.2264 31.3327 63.8234 30.5417 64.4304C30.5417 64.4304 30.9098 63.7239 31.0821 62.4652C31.2543 61.2064 31.9396 60.3059 31.779 61.7388C31.779 61.7388 32.4212 61.5597 32.664 60.1417C32.9067 58.7237 33.6311 59.1417 33.2787 60.5795C33.2787 60.5795 33.9091 60.5348 34.2302 59.1665C34.5474 57.7934 34.9977 56.7834 35.6242 57.4003C36.2467 58.0123 35.8434 58.8232 35.8434 58.8232C35.8434 58.8232 36.6148 58.1764 36.5639 57.266C36.513 56.3555 37.1669 55.4848 37.5663 57.3505C37.5663 57.3505 38.091 54.9674 36.7401 53.0668C35.3892 51.1662 34.9898 52.5245 34.7588 53.2509C34.5278 53.9773 33.8386 55.5047 31.3718 57.067C31.3718 57.067 31.6811 56.1117 31.0155 56.2162C30.3498 56.3256 29.7116 56.4649 29.3435 56.3107C28.9755 56.1515 28.4312 55.2709 26.7357 57.062C25.0403 58.8481 25.1773 58.5247 24.6017 58.8531C24.0261 59.1815 23.5719 58.7685 22.6283 59.8382C21.6807 60.9079 21.6337 61.1417 21.0542 61.1965C21.0542 61.1965 21.8804 61.704 22.4756 61.4452C23.0746 61.1915 23.5171 60.0671 25.2047 60.6243C25.2047 60.6243 24.1162 60.3954 22.918 61.8632C21.7198 63.3309 20.9641 64.107 20.4708 64.0772C20.4708 64.0772 21.3009 64.8732 22.5617 64.1966C23.8225 63.5199 23.7481 63.2264 24.355 63.2961C24.355 63.2961 21.6807 65.6046 21.0777 69.6396C20.4786 73.6746 21.0581 75.1274 21.0581 75.1274C21.0581 75.1274 17.9021 69.8038 18.9084 66.0076C19.9108 62.2065 20.7488 62.4204 20.7488 62.4204C20.7488 62.4204 20.3102 61.6393 18.8106 62.4751C17.5497 63.1816 16.1088 62.8184 14.8088 62.4552C12.3498 61.7686 9.94955 61.1915 7.42007 61.1666C5.98696 61.1567 4.48336 61.2114 3.08941 61.7537C2.3846 62.0273 1.71112 62.4303 1.13552 63.0274C0.869261 63.301 0.563845 63.6344 0.383727 64.0175C0.234934 64.3309 0.227105 64.8882 0 65.127C0 65.127 2.39635 62.6244 6.82489 65.2066C11.2534 67.7888 9.99653 71.1819 9.99653 71.1819C9.99653 71.1819 15.0359 69.2366 17.0603 75.3612C17.0603 75.3612 19.6485 74.4806 20.3141 77.7643C20.3376 77.8787 20.3533 77.9932 20.3729 78.1026C20.6822 76.9881 21.0503 76.2319 21.0503 76.2319C20.7096 78.5404 21.2382 81.5505 21.2382 81.5505C21.2382 81.5505 20.6822 82.1476 19.8521 82.3167C19.8286 82.3267 19.8051 82.3316 19.7816 82.3366C19.766 82.3366 19.7503 82.3366 19.7346 82.3416C19.6328 82.3565 19.5271 82.3665 19.4175 82.3615C19.4018 82.3615 19.3861 82.3615 19.3705 82.3615C19.3548 82.3615 19.347 82.3565 19.3313 82.3565C19.2021 82.3466 19.0729 82.3316 18.9319 82.2918C17.1229 81.7794 17.906 75.8737 13.8064 73.5154C13.8064 73.5154 14.6874 75.0478 14.6678 76.4409C14.6678 76.4409 13.4423 72.9333 10.7248 74.396C10.7248 74.396 12.6787 74.9831 13.1408 77.3663C13.1408 77.3663 11.0263 75.6498 10.2354 77.6001C10.2354 77.6001 11.8878 77.3663 12.7061 79.5654C13.5245 81.7645 15.4588 82.5406 15.4588 82.5406C15.4588 82.5406 16.7431 84.6103 17.816 85.69C18.8889 86.7696 20.3337 89.5409 21.1325 88.7448C21.7747 88.103 21.1129 86.8841 21.6533 85.3218C21.9979 86.3865 22.4716 87.4313 23.1686 88.4214C25.5454 91.8096 30.0601 92.4515 30.0601 92.4515C30.0601 92.4515 29.8291 91.4116 29.0694 90.317C27.8752 88.5806 28.5487 85.4959 28.5487 85.4959C28.5487 85.4959 28.4821 88.5508 29.3866 89.6056C30.2911 90.6603 31.2426 91.8793 30.898 93.541C30.898 93.541 29.2417 94.8396 27.9652 94.4067C26.6927 93.9739 23.893 90.4066 21.6924 94.1331C21.6924 94.1331 23.0355 93.8595 24.1671 94.8296C24.1671 94.8296 21.6807 94.6107 21.7081 97.3223C21.7081 97.3223 23.6346 96.5014 24.5626 97.6357C24.5626 97.6357 23.3527 98.1681 23.3957 100.367C23.3957 100.367 24.5861 98.7154 26.2267 99.2428C27.8713 99.7701 30.5848 97.5511 31.8613 96.9889C33.1377 96.4267 34.6531 95.9391 36.0431 96.1481C37.4332 96.3571 37.4253 94.4466 36.372 94.0087C35.3148 93.5709 34.7627 93.4465 34.0148 92.3768C34.0148 92.3768 35.5302 93.2823 37.2139 93.6604C38.9054 94.0386 40.5891 94.7699 40.5891 94.7699C40.5891 94.7699 41.3644 91.8644 43.5885 91.2026C43.5885 91.2026 41.5328 92.4067 40.9376 96.0984C40.3385 99.79 42.4647 101.188 44.7553 101.855C47.0421 102.521 48.9998 101.382 50.4251 101.88C50.4251 101.88 48.9489 101.895 47.3083 103.039C45.6638 104.183 42.1006 101.77 41.1765 101.949C40.2485 102.128 38.553 101.512 37.7934 103.268C37.7934 103.268 38.9093 103.079 39.9587 103.596C39.9587 103.596 38.0048 103.382 37.4997 106.407C37.4997 106.407 39.4223 104.984 41.5406 106.104C41.5406 106.104 40.0644 106.795 39.9391 109.129C39.9391 109.129 41.4467 106.77 43.8469 107.213C46.2511 107.656 47.9152 104.964 50.0257 105.482C52.1402 106.004 54.4269 105.671 53.6242 103.238C52.8763 100.979 52.5278 100.775 52.4847 100.76C52.5748 100.785 53.8826 101.268 54.7362 104.084C54.7362 104.084 60.594 104.77 59.9988 111.134C59.3997 117.492 51.1221 113.532 48.8628 117.607C47.7586 119.597 48.4947 121.05 49.5402 122.015C48.6984 122.099 47.0499 121.443 47.0499 121.443C48.3107 123.975 51.2826 125 51.2826 125L51.5607 120.154C51.2161 120.856 50.617 121.453 50.3194 121.726C49.6498 120.711 49.2779 119.373 50.3664 117.995C52.6061 115.149 56.2163 119.119 60.1632 117.129C63.9222 115.233 67.039 104.114 60.6409 96.5362C60.1476 96.8745 59.6346 97.0238 59.2157 97.1133M28.4508 59.4103C28.6544 59.1665 28.7953 58.863 28.9402 58.5645C29.273 57.9078 30.0444 57.0719 30.7022 57.4749C30.9567 57.6292 31.0664 57.9028 31.0116 58.1665C31.0116 58.1565 30.7101 57.6491 29.7547 58.9377C28.6896 60.3755 27.4523 60.0322 27.4523 60.0322C27.7381 60.1019 28.2511 59.6442 28.4508 59.4103ZM33.7329 67.6445C33.6585 67.6843 33.6154 67.7042 33.6154 67.7042C33.6154 67.7042 33.6546 67.7191 33.7329 67.6445ZM89.8592 70.57C88.1285 69.5202 86.3195 68.5251 85.4463 66.7639C85.4463 66.7639 86.8363 66.9778 87.4667 67.7888C87.4667 67.7888 87.2709 58.3804 80.6223 54.5693C80.215 54.3355 79.8039 54.0768 79.3928 53.7932C70.8058 52.2558 64.7445 63.4851 64.7445 63.4851L59.2274 57.9476C59.1569 58.9476 58.691 59.6939 58.3307 61.1268C58.2133 61.6044 58.1741 62.107 58.1741 62.5647C59.3135 64.4553 61.0521 66.0723 63.8361 66.2215C63.8361 66.2215 62.0623 71.6745 63.3819 75.4358C64.7053 79.1972 67.5324 82.451 67.1252 83.8541C66.718 85.2571 65.8683 86.9786 63.9261 87.4861C61.9801 87.9936 58.9886 88.5906 58.0018 89.7299C57.0151 90.8693 56.044 93.342 55.5154 93.959C54.9907 94.5759 52.6883 95.5411 52.5552 98.1382C52.5552 98.1382 55.3314 99.7254 57.4497 99.1084C57.4497 99.1084 57.8922 98.7552 57.9 98.1283C57.9 97.5014 57.9548 96.0785 58.413 95.8695C58.8711 95.6605 60.0536 95.6655 60.7545 94.3371C61.4554 93.0137 62.2581 92.0534 63.9105 91.4315C65.5628 90.8096 67.9905 89.5359 69.6664 88.9538C71.3423 88.3717 71.9688 88.1478 72.0118 87.6652C72.0118 87.6652 72.4504 86.7895 72.1998 85.6701C71.9492 84.5506 71.9022 83.6003 72.1254 82.063C72.3525 80.5256 72.4073 79.9435 72.4073 79.9435C72.4073 79.9435 76.0058 79.9335 79.3928 76.6399C82.4273 73.6895 82.9285 69.769 82.999 68.9878C83.0069 68.8983 83.0069 68.8485 83.0069 68.8485C83.0069 68.8485 86.1981 71.4257 84.6475 75.3811C83.0969 79.3365 78.6135 82.4958 77.9792 87.914C77.4467 92.4465 78.9268 94.7948 78.9268 94.7948C78.9268 94.7948 78.3904 90.6006 81.3975 86.4711C83.6334 83.4013 85.8457 83.4163 85.8457 83.4163C85.8457 83.4163 81.9262 85.7994 80.9081 91.2524C80.8376 91.6206 80.7671 92.0683 80.7045 92.541C81.3741 90.7399 82.6545 88.1378 84.7062 87.1627C90.5248 84.3914 96.8211 74.9632 89.8592 70.575M100.705 26.3991C96.2925 22.6427 91.7465 24.1005 89.914 25.3095C87.8974 26.6379 85.4424 25.2995 86.1041 26.006C86.1041 26.006 88.9977 29.5335 92.4787 27.4538C92.4787 27.4538 89.9336 30.7326 86.3782 27.4339C84.2089 25.4239 81.8948 23.9263 79.5376 22.9163C78.5861 21.8914 77.4545 20.3093 77.4819 18.6127C77.4937 17.9559 78.3669 16.9907 78.7506 14.8066C79.1382 12.6224 78.0614 11.2641 77.9244 10.8114C77.7874 10.3586 77.9636 10.1795 78.1202 9.56754C78.2768 8.95558 79.3967 8.99538 79.7491 10.1696C80.0976 11.3437 81.4563 13.1 82.8502 12.3438C84.2442 11.5875 83.7038 10.1049 83.5041 9.84617C83.3084 9.58745 83.1596 9.92079 83.2496 10.2392C83.3397 10.5576 83.1713 11.7069 82.0162 10.3337C80.8611 8.96056 81.5542 6.51767 80.7162 5.19424C79.8783 3.8708 77.8383 3.84095 76.9181 5.09971C75.9979 6.36344 76.7419 7.64708 77.1687 8.42323C77.5994 9.20435 76.8789 9.62725 76.8789 9.62725C75.16 8.69189 73.8639 9.12972 73.0769 9.64218C73.1983 11.3686 74.3064 12.7667 74.651 13.1548C74.8115 13.0851 74.9799 13.0453 75.1561 13.0602C75.9314 13.1249 76.5187 13.9757 76.4678 14.9608C76.4208 15.8763 75.8296 16.5628 75.1248 16.6026C75.0386 17.2942 74.9642 18.0007 74.741 18.6376C74.3495 19.752 73.4959 20.3441 72.9438 20.6227C76.4717 21.1451 77.294 22.8517 77.294 22.8517C74.835 21.0257 71.867 21.6526 71.3266 21.7869C69.5489 22.3193 68.5426 23.4238 68.8637 24.2248C68.8637 24.2248 72.4739 22.3193 75.3832 24.8219C78.2964 27.3195 77.3919 28.0359 81.8008 30.5783C86.2098 33.1257 89.0173 32.6729 92.698 30.0211C96.3786 27.3692 102.283 25.6329 103.247 34.6481C103.247 34.6481 99.9458 29.6977 94.5344 33.0262C89.1191 36.3547 89.0682 40.7081 85.133 38.2304C81.1939 35.7527 81.3623 32.9366 79.0129 31.3097L78.2886 32.1704C78.2886 32.1704 79.1617 32.1704 80.0506 34.9516C80.8024 37.295 83.0538 41.8275 86.8207 42.3052C90.5875 42.7878 92.4513 39.4344 93.7513 37.7528C95.0552 36.0711 97.2009 34.0063 100.2 35.3099C103.2 36.6134 103.713 38.7478 104.41 38.4642C105.103 38.1756 105.118 30.1505 100.705 26.3941M60.6253 39.2901C60.7271 39.4444 60.8015 39.6235 60.8876 39.7926L65.7586 34.6034C65.2144 34.683 64.721 34.2999 64.3882 33.9018L60.0183 38.5538C60.2337 38.7777 60.4412 39.0215 60.6253 39.2901ZM76.2368 36.7079C76.2368 36.7079 72.3133 37.3846 68.8441 34.9815C68.8441 34.9815 68.2294 34.9118 67.2035 35.9019C66.3734 36.703 65.8174 38.3349 64.4782 39.1011C64.4782 39.1011 66.808 38.4095 68.3938 40.9768C69.7604 43.1908 69.5607 44.8376 71.6438 44.7879C73.719 44.7431 75.2775 42.131 78.1319 43.4395C78.1319 43.4395 77.3606 42.0166 77.3292 39.7727C77.3018 37.5289 76.2368 36.698 76.2368 36.698M32.0844 34.8074C32.0844 34.8074 32.014 33.1705 32.5426 32.6779C33.0712 32.1854 33.5528 32.3943 34.0579 32.6033C34.5591 32.8172 35.1464 32.6282 35.5732 32.3396C35.9961 32.0461 36.4582 31.6679 37.2961 31.862C38.1341 32.056 39.5476 31.8023 40.7027 31.7426C41.8578 31.6829 43.2596 31.847 43.9252 32.7127C44.2933 33.1904 44.7162 34.1954 45.0608 35.2601C45.2996 33.6929 45.8086 31.8122 46.9207 30.5236C46.7954 30.0908 46.7171 29.7574 46.6583 29.6181C46.5056 29.2599 45.7382 28.0459 45.1312 27.8419C44.5243 27.6379 43.565 27.7374 42.9228 27.9762C42.2768 28.22 36.8732 29.1355 36.3133 29.1056C35.7573 29.0758 35.1739 28.8768 34.4886 28.6827C33.8034 28.4937 32.8127 28.2947 32.2137 28.9016C31.6185 29.5086 31.2191 30.5186 30.8315 30.9117C30.4438 31.3097 29.1791 31.4341 28.5369 32.1605C27.8987 32.8869 27.5815 34.3994 27.5815 34.3994C27.5815 34.3994 29.089 35.4293 30.1736 35.3248C31.2583 35.2203 32.0844 34.7974 32.0844 34.7974M59.5406 50.9025C60.5156 50.2955 62.2463 50.0119 64.5409 48.8925C68.0336 47.186 68.2255 45.3451 68.198 43.5888C68.1706 41.8325 66.7336 39.0016 63.746 40.2006C62.8885 40.5489 62.2111 41.0812 61.5885 41.6982L61.7256 42.2703L57.2226 46.5193C57.4106 47.5143 57.9509 49.2109 59.5367 50.9025M42.7819 11.498C42.7505 12.3239 42.7936 14.1498 41.572 16.2892C45.3035 17.1997 46.3177 20.0356 46.5878 21.6924C47.2026 21.1401 47.9387 20.5779 48.7297 20.2446C49.8965 19.752 53.3775 18.2843 53.6046 13.6971C53.8317 9.10981 52.3673 6.36344 52.3673 6.36344C52.3673 6.36344 54.3446 7.90081 54.4739 12.1298C54.6031 16.3589 53.7142 17.6524 52.011 20.16C52.011 20.16 52.0971 22.3442 50.8911 24.195C50.2528 25.1801 49.6538 26.6528 49.2113 28.2101C49.6812 28.7872 50.2098 29.3594 50.7384 29.8619C51.5058 30.5883 52.3203 31.245 53.1739 31.7923C54.885 32.8919 56.7723 33.5685 58.7027 33.6481C59.6699 33.7028 60.6449 33.5884 61.6003 33.3347C62.0623 33.2401 62.5048 33.056 62.959 32.9018C63.1391 32.3744 63.1587 30.8719 63.1117 30.2798C63.0334 29.1803 63.0138 28.8668 62.9159 27.4737C61.7021 9.72178 54.1919 7.71175 54.1802 7.70678C54.1998 7.70678 63.0451 8.32372 63.5972 26.1155C64.0514 20.9411 65.2535 15.7917 62.5517 9.50287C59.5211 2.45284 52.8645 4.76139 52.8645 4.76139C53.2365 2.85086 51.8974 0.542313 50.9811 0.0646816C50.9968 0.10946 51.4667 0.930385 51.2004 1.75629C51.032 2.27372 50.8598 3.4678 51.0046 4.16434C51.0046 4.16434 50.2372 3.30361 49.0116 3.8708C49.0116 3.8708 48.577 0.587088 46.5643 0C46.5643 0 46.8502 0.681623 46.7014 1.83092C46.5565 2.98022 46.7914 4.26385 47.1008 4.64198C47.1008 4.64198 45.8125 3.72652 44.3716 5.7465C43.1578 7.45303 42.731 7.28387 42.6292 7.18934C42.7936 7.3784 43.7138 8.30879 45.3466 7.49781C45.3466 7.49781 44.9002 8.45805 44.493 8.8909C44.0858 9.32375 42.8093 10.5228 42.774 11.5029M46.4665 13.4582C47.0969 13.0005 47.4101 12.7219 47.7155 13.2642C47.7155 13.2642 47.0616 13.8563 46.9794 14.4235C46.9011 14.9906 46.2041 15.319 46.2041 15.319C46.2041 15.319 45.7656 14.8115 45.8008 14.12C45.8008 14.12 45.4014 14.1896 45.28 13.717C45.28 13.717 45.84 13.916 46.4704 13.4632M39.2813 23.3193C39.1639 23.9612 40.1545 24.3592 40.6244 24.4089C41.0942 24.4587 41.8147 24.9264 42.2376 24.0059C42.6644 23.0855 42.9424 22.8069 43.6629 22.578C44.3834 22.3492 44.0231 22.986 43.8822 23.3144C43.7451 23.6427 42.915 24.2646 43.1617 24.6577C43.4084 25.0458 44.0544 25.9762 44.4891 25.1901C44.8141 24.598 44.9824 23.7472 45.3544 23.0606C45.096 18.8963 42.171 17.6723 40.8906 17.334C40.8397 17.3987 40.7888 17.4684 40.734 17.538C38.6587 20.1948 38.7958 19.8267 38.9524 21.165C39.109 22.5034 39.3949 22.6775 39.2774 23.3193" fill="#F22129"/>
<path d="M112.581 78.1949C112.581 77.5331 112.647 77.0655 112.78 76.7868C112.913 76.5082 113.195 76.3689 113.622 76.3689H119.394C119.844 76.3689 120.134 76.4834 120.267 76.7122C120.4 76.9411 120.467 77.3441 120.467 77.9262V79.6377C120.467 80.6029 120.572 81.399 120.788 82.0358C121.003 82.6677 121.285 83.1801 121.629 83.5732C121.978 83.9662 122.358 84.2449 122.765 84.409C123.176 84.5732 123.583 84.6578 123.995 84.6578C124.488 84.6578 124.946 84.5484 125.377 84.3344C125.807 84.1205 126.179 83.812 126.497 83.4189C126.814 83.0259 127.072 82.5532 127.264 81.991C127.46 81.4338 127.554 80.8119 127.554 80.1303C127.554 79.2148 127.444 78.3989 127.229 77.6774C127.013 76.956 126.685 76.2495 126.246 75.5679C125.807 74.8813 125.24 74.1798 124.543 73.4534C123.846 72.732 123.027 71.8862 122.088 70.9259C120.431 69.304 119.002 67.876 117.804 66.6471C116.61 65.4182 115.623 64.1744 114.844 62.9206C114.065 61.6668 113.493 60.2837 113.125 58.7762C112.757 57.2687 112.573 55.4228 112.573 53.2436C112.573 50.7858 112.945 48.6862 113.693 46.9498C114.44 45.2135 115.372 43.8005 116.488 42.7109C117.604 41.6213 118.81 40.8302 120.11 40.3327C121.41 39.8401 122.612 39.5913 123.717 39.5913C125.334 39.5913 126.822 39.9197 128.184 40.5765C129.547 41.2382 130.722 42.1686 131.716 43.3726C132.707 44.5766 133.482 46.0344 134.034 47.7459C134.586 49.4574 134.864 51.3679 134.864 53.4675V55.6766C134.864 56.2338 134.79 56.6069 134.633 56.801C134.477 56.99 134.148 57.0846 133.635 57.0846H128.02C127.609 57.0846 127.35 56.9851 127.237 56.7811C127.127 56.5771 127.068 56.2139 127.068 55.6815V53.5123C127.068 52.8555 126.994 52.2336 126.853 51.6515C126.708 51.0694 126.5 50.5619 126.226 50.1291C125.948 49.7012 125.6 49.3579 125.181 49.1042C124.762 48.8504 124.273 48.7211 123.72 48.7211C123.333 48.7211 122.937 48.8106 122.538 48.9897C122.139 49.1688 121.782 49.4425 121.465 49.8256C121.148 50.2087 120.886 50.7012 120.682 51.3082C120.478 51.9152 120.376 52.6516 120.376 53.5123C120.376 54.4277 120.486 55.2238 120.698 55.9104C120.913 56.597 121.218 57.2338 121.618 57.8309C122.017 58.4229 122.503 59.005 123.074 59.5573C123.646 60.1145 124.28 60.7265 124.977 61.3832C126.453 62.7515 127.828 64.0799 129.108 65.3585C130.385 66.6372 131.501 68.0154 132.452 69.4831C133.404 70.9558 134.155 72.5827 134.708 74.3738C135.26 76.16 135.534 78.2595 135.534 80.6676C135.534 82.4438 135.252 84.1254 134.692 85.7275C134.128 87.3246 133.341 88.7276 132.327 89.9267C131.313 91.1307 130.095 92.0909 128.674 92.7974C127.252 93.5089 125.67 93.8622 123.932 93.8622C122.029 93.8622 120.373 93.489 118.959 92.7427C117.549 91.9964 116.367 90.9864 115.415 89.7177C114.464 88.449 113.751 87.0012 113.281 85.3643C112.812 83.7274 112.573 82.0109 112.573 80.2099V78.1949H112.581Z" fill="#F22129"/>
<path d="M161.847 91.6182C162.05 92.5586 161.858 93.0262 161.263 93.0262H154.908C154.603 93.0262 154.325 92.9317 154.078 92.7426C153.831 92.5536 153.69 92.2302 153.651 91.7725L152.853 85.419H145.977L145.209 91.7725C145.147 92.2302 144.994 92.5536 144.747 92.7426C144.501 92.9317 144.234 93.0262 143.948 93.0262H137.593C136.979 93.0262 136.775 92.5436 136.979 91.5784L145.487 41.7207C145.671 40.8351 146.075 40.3923 146.685 40.3923H152.148C152.782 40.3923 153.189 40.8351 153.373 41.7207L161.847 91.6182ZM146.991 77.354H151.842L149.755 60.4677L149.419 56.0198L149.082 60.4677L146.995 77.354H146.991Z" fill="#F22129"/>
<path d="M164.979 41.8701C164.979 41.4124 165.069 41.0542 165.253 40.7855C165.437 40.5218 165.703 40.3875 166.052 40.3875H171.824C172.09 40.4123 172.344 40.5268 172.591 40.7308C172.838 40.9348 173.022 41.2532 173.143 41.6811L180.755 69.7518L181.522 74.1251L181.37 70.1299L181.033 41.8701C181.033 41.4671 181.119 41.1139 181.295 40.8253C181.468 40.5317 181.75 40.3875 182.141 40.3875H187.819C188.065 40.3875 188.3 40.4919 188.524 40.691C188.747 40.8949 188.86 41.2731 188.86 41.8303V91.5835C188.86 92.5487 188.473 93.0264 187.693 93.0264H181.985C181.695 93.0264 181.417 92.9318 181.143 92.7428C180.865 92.5537 180.665 92.2403 180.544 91.8124L173.147 65.0004L172.348 61.3485L172.532 65.1546L172.81 91.5885C172.849 92.5537 172.493 93.0313 171.737 93.0313H166.06C165.343 93.0313 164.987 92.5487 164.987 91.5885V41.8701H164.979Z" fill="#F22129"/>
<path d="M225.271 40.3875H218.916C218.732 40.3875 218.533 40.482 218.317 40.6711C218.106 40.8601 217.996 41.2482 217.996 41.8303V79.7273C217.996 80.404 217.922 81.0458 217.781 81.6578C217.64 82.2648 217.417 82.7971 217.123 83.2548C216.826 83.7126 216.454 84.0708 216.003 84.3196C215.588 84.5534 215.091 84.6678 214.539 84.6877C214.057 84.6678 213.619 84.5584 213.243 84.3196C212.832 84.0708 212.491 83.7325 212.213 83.3145C211.935 82.8916 211.727 82.414 211.586 81.8667C211.512 81.5881 211.457 81.3045 211.422 81.011C211.387 80.7075 211.379 80.409 211.363 80.1055C211.336 79.6428 210.979 79.2995 210.608 79.3641C210.459 79.394 210.314 79.4388 210.165 79.4736L209.605 79.603C209.374 79.6577 209.139 79.7124 208.904 79.7671C208.642 79.8268 208.376 79.8915 208.109 79.9512C207.827 80.0159 207.549 80.0806 207.268 80.1453C206.99 80.2099 206.708 80.2746 206.426 80.3443C206.163 80.404 205.901 80.4687 205.635 80.5284L204.938 80.6925L204.382 80.8219C204.26 80.8518 204.135 80.8816 204.014 80.9065C203.971 80.9164 203.928 80.9264 203.881 80.9363C203.34 81.0607 202.988 81.6926 203.05 82.3742C203.176 83.7325 203.454 84.9912 203.896 86.1455C204.523 87.7675 205.368 89.1506 206.445 90.29C207.518 91.4293 208.763 92.3099 210.177 92.9319C211.59 93.5538 213.082 93.8622 214.656 93.8622C214.691 93.8622 214.723 93.8573 214.758 93.8573C214.793 93.8573 214.817 93.8622 214.844 93.8622C216.234 93.8622 217.566 93.5936 218.834 93.0811C218.94 93.0413 219.05 93.0065 219.155 92.9667C219.191 92.9517 219.222 92.9318 219.257 92.9169C219.265 92.9169 219.273 92.907 219.281 92.907C219.304 92.897 219.324 92.8821 219.343 92.8771C220.686 92.2851 221.877 91.4492 222.903 90.3646C223.975 89.2252 224.829 87.8321 225.463 86.2002C226.098 84.5634 226.415 82.7225 226.415 80.6677V42.0243C226.415 40.9347 226.039 40.3875 225.279 40.3875" fill="#F22129"/>
<path d="M230.612 52.786C230.612 50.7312 230.922 48.8854 231.548 47.2535C232.175 45.6166 233.02 44.2285 234.097 43.0891C235.174 41.9498 236.415 41.0791 237.829 40.4821C239.238 39.89 240.734 39.5865 242.308 39.5865C243.882 39.5865 245.382 39.885 246.803 40.4821C248.225 41.0791 249.474 41.9448 250.551 43.0692C251.624 44.1986 252.477 45.5818 253.111 47.2137C253.746 48.8506 254.063 50.7063 254.063 52.786V80.6677C254.063 82.7226 253.746 84.5634 253.111 86.2003C252.477 87.8372 251.624 89.2253 250.551 90.3646C249.474 91.504 248.225 92.3747 246.803 92.9667C245.382 93.5638 243.882 93.8623 242.308 93.8623C240.734 93.8623 239.238 93.5538 237.829 92.9319C236.415 92.31 235.174 91.4294 234.097 90.29C233.024 89.1507 232.175 87.7675 231.548 86.1456C230.922 84.5236 230.612 82.6977 230.612 80.6677V52.786ZM239.023 80.1304C239.023 80.7374 239.094 81.3145 239.238 81.8618C239.379 82.4041 239.591 82.8867 239.865 83.3047C240.139 83.7226 240.484 84.0609 240.895 84.3147C241.306 84.5684 241.776 84.6978 242.308 84.6978C243.393 84.6978 244.219 84.2749 244.795 83.439C245.366 82.6031 245.652 81.5782 245.652 80.3593V53.3582C245.652 52.7512 245.578 52.1691 245.437 51.6069C245.296 51.0496 245.081 50.5571 244.795 50.1242C244.505 49.6914 244.16 49.3531 243.749 49.0943C243.338 48.8406 242.88 48.7112 242.367 48.7112C241.854 48.7112 241.365 48.8406 240.954 49.0943C240.542 49.3481 240.194 49.6914 239.908 50.1242C239.622 50.5571 239.403 51.0496 239.25 51.6069C239.098 52.1641 239.019 52.7462 239.019 53.3582V80.1354L239.023 80.1304Z" fill="#F22129"/>
<path d="M258.484 41.8703C258.484 41.4125 258.578 41.0543 258.758 40.7856C258.946 40.5219 259.212 40.3826 259.557 40.3826H270.638C272.255 40.3826 273.762 40.7458 275.152 41.4673C276.543 42.1937 277.741 43.1738 278.747 44.4176C279.749 45.6615 280.536 47.1093 281.108 48.771C281.684 50.4278 281.966 52.2139 281.966 54.1145V58.4878C281.966 59.856 281.844 61.1247 281.598 62.289C281.355 63.4532 281.01 64.5179 280.572 65.4831C280.133 66.4483 279.612 67.3141 279.005 68.0852C278.402 68.8614 277.752 69.5231 277.055 70.0853L282.396 91.5339C282.479 91.8872 282.459 92.2255 282.334 92.5439C282.212 92.8623 282.005 93.0166 281.719 93.0166H275.117C274.812 93.0166 274.585 92.9419 274.444 92.7877C274.303 92.6335 274.189 92.3051 274.107 91.7976L269.596 72.5133H266.894V91.6036C266.894 92.5389 266.546 93.0116 265.853 93.0116H259.561C258.844 93.0116 258.488 92.5439 258.488 91.6036V41.8703H258.484ZM266.894 49.6268V63.891H269.996C271.139 63.891 272.02 63.4582 272.635 62.5974C273.249 61.7317 273.559 60.6571 273.559 59.3635V54.1145C273.559 52.7463 273.23 51.6567 272.576 50.8457C271.922 50.0348 271.053 49.6318 269.964 49.6318H266.894V49.6268Z" fill="#F22129"/>
<path d="M286.68 47.2533C287.302 45.6165 288.156 44.2283 289.229 43.089C290.302 41.9496 291.551 41.079 292.972 40.4819C294.394 39.8899 295.893 39.5913 297.471 39.5913C298.947 39.5913 300.244 39.8152 301.371 40.2531C302.495 40.7008 303.47 41.2829 304.288 42.0044C305.107 42.7258 305.792 43.5517 306.344 44.4771C306.896 45.4025 307.335 46.3578 307.664 47.3479C307.992 48.338 308.223 49.3231 308.372 50.2933C308.513 51.2684 308.584 52.164 308.584 52.975V56.4378C308.584 57.0249 308.525 57.4328 308.4 57.6766C308.278 57.9155 308.024 58.0398 307.632 58.0398H301.645C301.277 58.0398 301.027 57.9254 300.894 57.6965C300.76 57.4677 300.694 57.1045 300.694 56.592V53.2436C300.694 52.6864 300.619 52.1341 300.478 51.5868C300.337 51.0445 300.126 50.557 299.848 50.1241C299.57 49.6912 299.229 49.3529 298.818 49.0992C298.407 48.8454 297.937 48.7161 297.409 48.7161C296.406 48.7161 295.611 49.144 295.028 50.0097C294.444 50.8754 294.151 51.9152 294.151 53.1292V80.1701C294.151 80.8567 294.237 81.4686 294.413 82.0159C294.585 82.5632 294.816 83.0359 295.102 83.4438C295.388 83.8468 295.729 84.1603 296.132 84.3742C296.532 84.5882 296.966 84.6976 297.436 84.6976C297.906 84.6976 298.384 84.5832 298.803 84.3543C299.222 84.1255 299.586 83.812 299.891 83.419C300.197 83.0259 300.439 82.5682 300.615 82.0507C300.788 81.5283 300.874 80.9661 300.874 80.3591V72.9807H298.572C297.957 72.9807 297.651 72.5479 297.651 71.6871V65.9406C297.651 65.0302 297.957 64.5724 298.572 64.5724H307.66C308.396 64.5724 308.764 65.055 308.764 66.0203V80.6626C308.764 82.7174 308.47 84.5583 307.875 86.1952C307.28 87.8271 306.473 89.2202 305.447 90.3595C304.425 91.4989 303.227 92.3696 301.857 92.9616C300.486 93.5587 299.014 93.8572 297.436 93.8572C295.858 93.8572 294.398 93.5686 292.988 92.9815C291.574 92.3994 290.333 91.5437 289.256 90.4143C288.183 89.2849 287.33 87.9017 286.696 86.2698C286.061 84.6329 285.744 82.7672 285.744 80.6626V52.7859C285.744 50.7311 286.057 48.8852 286.68 47.2533Z" fill="#F22129"/>
<path d="M313.063 41.8701C313.063 41.4124 313.153 41.0542 313.337 40.7855C313.521 40.5218 313.788 40.3875 314.136 40.3875H332.923C333.518 40.3875 333.816 40.8601 333.816 41.7955V48.2584C333.816 49.1739 333.518 49.6266 332.923 49.6266H321.474V61.8361H330.593C330.879 61.8361 331.118 61.9356 331.314 62.1396C331.51 62.3436 331.604 62.6869 331.604 63.1645V69.6672C331.604 70.125 331.514 70.4533 331.33 70.6573C331.146 70.8613 330.899 70.9608 330.593 70.9608H321.474V83.8519H333.076C333.342 83.8519 333.565 83.9613 333.738 84.1753C333.91 84.3892 334 84.7126 334 85.1455V91.688C334 92.1457 333.914 92.4791 333.738 92.698C333.565 92.9119 333.342 93.0214 333.076 93.0214H314.136C313.42 93.0214 313.063 92.5388 313.063 91.5786V41.8701Z" fill="#F22129"/>
</svg>
